<svg xmlns="http://www.w3.org/2000/svg" viewBox="0 0 1000 1000"><style>.st0{fill:#f47a0b}.st1{fill:#d86109}.st2{fill:#fff}</style><ellipse class="st0" cx="499.7" cy="503.5" rx="487.2" ry="487.5" id="Layer_2"/><path class="st1" d="M528.4 987.1l3-3 3-3 3-3 3-3 3-3 3-3 3-3 3-3 3-3 3-3 3-3 3-3 3-3 3-3 3-3 3-3 3-3 3-3 3-3 3-3 3-3 3-3 3-3 3-3 3-3 3-3 3-3 3-3 3-3 3-3 3-3 3-3 3-3 3-3 3-3 3-3 3-3 3-3 3-3 3-3 3-3 3-3 3-3 3-3 3-3 3-3 3-3 3-3 3-3 3-3 3-3 3-3 3-3 3-3 3-3 3-3 3-3 3-3 3-3 3-3 3-3 3-3 3-3 3-3 3-3 3-3 3-3 3-3 3-3 3-3 3-3 3-3 3-3 3-3 3-3 3-3 3-3 3-3 3-3 3-3 3-3 3-3 3-3 3-3 3-3 3-3 3-3 3-3 3-3c4.2-4.1 8.5-8.8 12.6-14.3 13.5-17.8 20.1-54.8 21-91.4h-24.2v-1h3.1c0-1-.1-2-.1-3h3.1c0-1-.1-2-.1-3h3.1c0-1-.1-2-.1-3h3.1c0-1-.1-2-.1-3h3.1c0-1-.1-2-.1-3h3.1c0-1-.1-2-.1-3h3.1c0-1-.1-2-.1-3h3.1c-.5-14.8-1.9-28.8-4.2-40.7-9.4-50.2-23-65.1-39.7-71.3 1-.9 1.9-1.8 2.7-2.8 1.1-.9 2.1-1.9 3-3 1.1-.9 2.1-1.9 3-3 1.1-.9 2.1-1.9 3-3 1.1-.9 2.1-1.9 3-3 1.1-.9 2.1-1.9 3-3 1.1-.9 2.1-1.9 3-3 1.1-.9 2.1-1.9 3-3 1.1-.9 2.1-1.9 3-3 1.1-.9 2.1-1.9 3-3 1.1-.9 2.1-1.9 3-3 1.1-.9 2.1-1.9 3-3 1.1-.9 2.1-1.9 3-3 5.7-4.9 9.4-12.1 9.4-20.2v-54.6c0-14.6-13.6-26.3-26.6-33-43.3-22.1-95.7-54.2-304.2-54.2-231.8 0-272.6 24.8-311.3 44.7-4.8 2.5-9.4 6.1-13.4 10.3l-3 3-3 3-3 3-3 3-3 3-3 3-3 3-3 3-3 3-3 3-3 3-3 3-3 3-3 3-3 3-3 3-3 3-3 3-3 3-3 3-3 3-3 3-3 3-3 3-3 3-3 3-3 3-3 3-3 3-3 3-3 3-3 3-3 3-3 3-3 3-3 3-3 3-3 3-3 3-3 3-3 3-3 3-3 3-3 3-3 3-3 3-3 3-3 3-3 3-3 3-3 3-3 3-3 3-3 3-3 3-.2.2v3.6C12.5 772.7 230.6 991 499.7 991c8.5 0 17-.2 25.5-.7l.2-.2c1-.9 2-1.9 3-3z" id="Layer_4"/><g id="Layer_3"><path class="st2" d="M806.6 448.1s-130.4-19.1-167.7 0c-18.1 9.2-18.4 24.8-27.7 24.7-9.1-.1-12.1-14.1-26.9-22.2-34.5-18.9-123-16.7-157.8 1.8-17.4 9.2-16.7 23-26.2 23-9.7.1-19.1-22.7-27.7-27.3-39.5-21.4-179.7 0-179.7 0-14.6 0-26.6-12-26.6-26.6v-61c0-14.6 11.8-29.5 24.8-36.2 38.7-19.9 79.4-44.7 311.3-44.7 208.5 0 260.9 32.2 304.2 54.2 13 6.6 26.6 18.3 26.6 33v54.6c0 14.7-12 26.7-26.6 26.7z"/><path class="st2" d="M177.3 592.5H233V569c0-12.1 9.9-22 22-22s22 9.9 22 22v23.5h26V569c0-12.1 9.9-22 22-22s22 9.9 22 22v23.5h98.4V569c0-12.1 9.9-22 22-22s22 9.9 22 22v23.5h26V569c0-12.1 9.9-22 22-22s22 9.9 22 22v23.5h97V569c0-12.1 9.9-22 22-22s22 9.9 22 22v23.5h26V569c0-12.1 9.9-22 22-22s22 9.9 22 22v23.5H829c-.5-14.8-1.9-28.8-4.2-40.7-12.3-65.5-31.7-70.9-55.8-75.4-21.6-4-84.8-10.9-122.4 3.2-17.6 6.6-30.5 27.2-38 55.7-12.3-50.6-30.5-58.2-52.3-62.9-18.4-4-83.7-11-122.4 7.1-17.1 8-30 28.9-37.6 57.3-12.5-52.5-31.4-62.8-53.9-64.5-22.6-1.6-83.6-6.9-121.2 7.1-27.9 10.5-44.2 56.4-45.5 113 .5.2 1 .1 1.6.1zm593.1 22V638c0 12.1-9.9 22-22 22s-22-9.9-22-22v-23.5h-26V638c0 12.1-9.9 22-22 22s-22-9.9-22-22v-23.5h-97V638c0 12.1-9.9 22-22 22s-22-9.9-22-22v-23.5h-26V638c0 12.1-9.9 22-22 22s-22-9.9-22-22v-23.5H347V638c0 12.1-9.9 22-22 22s-22-9.9-22-22v-23.5h-26V638c0 12.1-9.9 22-22 22s-22-9.9-22-22v-23.5h-55.7c-.5 0-.9 0-1.4-.1.5 12.8 1.8 26 3.8 39.3 2.3 15.4 8 44.7 26.3 59.7 41.7 34.1 68.5 33.1 83.6 33 20.8-.1 59.6 3.5 92.9-40.5 5.9-7.8 10.4-19.2 13.8-32.6 3.8 14.2 10.3 30.3 22.4 40.1 41.7 34.1 68.5 33.1 83.6 33 20.8-.1 59.6 3.5 92.9-40.5 5.9-7.8 10.4-19.2 13.8-32.6 3.8 14.2 10.3 30.3 22.4 40.1 41.7 34.1 68.5 33.1 83.6 33 20.8-.1 59.6 3.5 92.9-40.5 13.5-17.8 20.1-54.8 21-91.4h-58.5z"/></g></svg>