<svg xmlns="http://www.w3.org/2000/svg" viewBox="0 0 1000 1000"><style>.st0{fill:#f47a0b}.st1{fill:#e56e0c}.st2{fill:#fff}</style><ellipse class="st0" cx="499.7" cy="503.5" rx="487.2" ry="487.5" id="Layer_2"/><path class="st1" d="M590 979.5c1.2-.7 2.3-1.8 3-3 1.2-.7 2.3-1.8 3-3 1.2-.7 2.3-1.8 3-3 1.2-.7 2.3-1.8 3-3 1.2-.7 2.3-1.8 3-3 1.2-.7 2.3-1.8 3-3 1.2-.7 2.3-1.8 3-3 1.2-.7 2.3-1.8 3-3 1.2-.7 2.3-1.8 3-3 1.2-.7 2.3-1.8 3-3 1.2-.7 2.3-1.8 3-3 1.2-.7 2.3-1.8 3-3 1.2-.7 2.3-1.8 3-3 1.2-.7 2.3-1.8 3-3 1.2-.7 2.3-1.8 3-3 1.2-.7 2.3-1.8 3-3 1.2-.7 2.3-1.8 3-3 1.2-.7 2.3-1.8 3-3 1.2-.7 2.3-1.8 3-3 1.2-.7 2.3-1.8 3-3 1.2-.7 2.3-1.8 3-3 1.2-.7 2.3-1.8 3-3 1.2-.7 2.3-1.8 3-3 1.2-.7 2.3-1.8 3-3 1.2-.7 2.3-1.8 3-3 1.2-.7 2.3-1.8 3-3 1.2-.7 2.3-1.8 3-3 1.2-.7 2.3-1.8 3-3 1.2-.7 2.3-1.8 3-3 1.2-.7 2.3-1.8 3-3 1.2-.7 2.3-1.8 3-3 1.2-.7 2.3-1.8 3-3 1.2-.7 2.3-1.8 3-3 1.2-.7 2.3-1.8 3-3 1.2-.7 2.3-1.8 3-3 1.2-.7 2.3-1.8 3-3 1.2-.7 2.3-1.8 3-3 1.2-.7 2.3-1.8 3-3 1.2-.7 2.3-1.8 3-3 1.2-.7 2.3-1.8 3-3 1.2-.7 2.3-1.8 3-3 1.2-.7 2.3-1.8 3-3 1.2-.7 2.3-1.8 3-3 1.2-.7 2.3-1.8 3-3 1.2-.7 2.3-1.8 3-3 1.2-.7 2.3-1.8 3-3 1.2-.7 2.3-1.8 3-3 1.2-.7 2.3-1.8 3-3 1.2-.7 2.3-1.8 3-3 1.2-.7 2.3-1.8 3-3 1.2-.7 2.3-1.8 3-3 1.2-.7 2.3-1.8 3-3 1.2-.7 2.3-1.8 3-3 1.2-.7 2.3-1.8 3-3 1.2-.7 2.3-1.8 3-3 1.2-.7 2.3-1.8 3-3 1.2-.7 2.3-1.8 3-3 1.2-.7 2.3-1.8 3-3 1.2-.7 2.3-1.8 3-3 1.2-.7 2.3-1.8 3-3 1.2-.7 2.3-1.8 3-3 1.2-.7 2.3-1.8 3-3 1.2-.7 2.3-1.8 3-3 1.2-.7 2.3-1.8 3-3 1.2-.7 2.3-1.8 3-3 1.2-.7 2.3-1.8 3-3 1.2-.7 2.3-1.8 3-3 2.5-1.5 4.2-4.1 4.2-7.2V462.1c.5-.5 1-1.1 1.3-1.7 1.3-.7 2.3-1.8 3-3 1.3-.7 2.3-1.8 3-3 1.3-.7 2.3-1.8 3-3 1.3-.7 2.3-1.8 3-3 1.3-.7 2.3-1.8 3-3 1.3-.7 2.3-1.8 3-3 1.3-.7 2.3-1.8 3-3 1.3-.7 2.3-1.8 3-3 1.3-.7 2.3-1.8 3-3 1.3-.7 2.3-1.8 3-3 1.3-.7 2.3-1.8 3-3 1.3-.7 2.3-1.8 3-3 1.3-.7 2.3-1.8 3-3 1.3-.7 2.3-1.8 3-3 1.3-.7 2.3-1.8 3-3 4.8-2.7 6-10 1-13.9L498.2 131.1c-3-2.4-7.3-2.4-10.4 0L143.5 401.4c-.8.7-1.5 1.4-2 2.2l-1 .8c-.8.7-1.5 1.4-2 2.2l-1 .8c-.8.7-1.5 1.4-2 2.2l-1 .8c-.8.7-1.5 1.4-2 2.2l-1 .8c-.8.7-1.5 1.4-2 2.2l-1 .8c-.8.7-1.5 1.4-2 2.2l-1 .8c-.8.7-1.5 1.4-2 2.2l-1 .8c-.8.7-1.5 1.4-2 2.2l-1 .8c-.8.7-1.5 1.4-2 2.2l-1 .8c-.8.7-1.5 1.4-2 2.2l-1 .8c-.8.7-1.5 1.4-2 2.2l-1 .8c-.8.7-1.5 1.4-2 2.2l-1 .8c-.8.7-1.5 1.4-2 2.2l-1 .8c-.8.7-1.5 1.4-2 2.2l-1 .8c-.8.7-1.5 1.4-2 2.2l-1 .8c-.8.7-1.5 1.4-2 2.2l-1 .8c-.8.7-1.5 1.4-2 2.2l-1 .8c-.8.7-1.5 1.4-2 2.2l-1 .8c-.8.7-1.5 1.4-2 2.2l-1 .8c-.8.7-1.5 1.4-2 2.2l-1 .8c-.8.7-1.5 1.4-2 2.2l-1 .8c-.8.7-1.5 1.4-2 2.2l-1 .8c-.8.7-1.5 1.4-2 2.2l-1 .8c-.8.7-1.5 1.4-2 2.2l-1 .8c-.8.7-1.5 1.4-2 2.2l-1 .8c-.8.7-1.5 1.4-2 2.2l-1 .8c-.8.7-1.5 1.4-2 2.2l-1 .8c-.8.7-1.5 1.4-2 2.2l-1 .8c-.8.7-1.5 1.4-2 2.2l-1 .8c-.8.7-1.5 1.4-2 2.2l-1 .8c-.8.7-1.5 1.4-2 2.2l-1 .8c-.8.7-1.5 1.4-2 2.2l-1 .8c-.8.7-1.5 1.4-2 2.2l-1 .8c-.8.7-1.5 1.4-2 2.2l-1 .8c-.8.7-1.5 1.4-2 2.2l-1 .8c-.8.7-1.5 1.4-2 2.2l-1 .8c-.8.7-1.5 1.4-2 2.2l-1 .8c-.8.7-1.5 1.4-2 2.2l-1 .8c-.8.7-1.5 1.4-2 2.2l-1 .8c-.8.7-1.5 1.4-2 2.2l-1 .8c-.8.7-1.5 1.4-2 2.2l-1 .8c-.8.7-1.5 1.4-2 2.2l-1 .8c-.8.7-1.5 1.4-2 2.2l-1 .8c-.4.4-.8.7-1.2 1.1C27.9 787.7 240.1 991 499.7 991c29.6 0 58.6-2.6 86.7-7.7.2-.3.4-.5.6-.8 1.3-.8 2.3-1.8 3-3z" id="Layer_5"/><path class="st2" d="M487.8 131.1L143.5 401.4c-6.3 4.9-2.8 15 5.2 15h33.7c4.6 0 8.4 3.8 8.4 8.4v346.4c0 4.6 3.8 8.4 8.4 8.4h587.6c4.6 0 8.4-3.8 8.4-8.4V424.8c0-4.6 3.8-8.4 8.4-8.4h33.7c8 0 11.4-10.1 5.2-15L498.2 131.1c-3.1-2.4-7.3-2.4-10.4 0zm87.4 505.5H410.8c-4.6 0-8.4-3.8-8.4-8.4V493.5c0-4.6 3.8-8.4 8.4-8.4h164.4c4.6 0 8.4 3.8 8.4 8.4v134.7c0 4.7-3.8 8.4-8.4 8.4z" id="Layer_3"/></svg>