<svg xmlns="http://www.w3.org/2000/svg" viewBox="0 0 1000 1000"><style>.st0{fill:#f47a0b}.st1{fill:#d76008}.st2{fill:#fff}</style><ellipse class="st0" cx="499.7" cy="503.5" rx="487.2" ry="487.5" id="Layer_2"/><path class="st1" d="M605 977.1c1.1-.8 2.1-1.8 3-3 1.1-.8 2.1-1.8 3-3 1.1-.8 2.1-1.8 3-3 1.1-.8 2.1-1.8 3-3 1.1-.8 2.1-1.8 3-3 1.1-.8 2.1-1.8 3-3 1.1-.8 2.1-1.8 3-3 1.1-.8 2.1-1.8 3-3 1.1-.8 2.1-1.8 3-3 1.1-.8 2.1-1.8 3-3 1.1-.8 2.1-1.8 3-3 1.1-.8 2.1-1.8 3-3 1.1-.8 2.1-1.8 3-3 1.1-.8 2.1-1.8 3-3 1.1-.8 2.1-1.8 3-3 1.1-.8 2.1-1.8 3-3 1.1-.8 2.1-1.8 3-3 1.1-.8 2.1-1.8 3-3 1.1-.8 2.1-1.8 3-3 1.1-.8 2.1-1.8 3-3 1.1-.8 2.1-1.8 3-3 1.1-.8 2.1-1.8 3-3 1.1-.8 2.1-1.8 3-3 1.1-.8 2.1-1.8 3-3 1.1-.8 2.1-1.8 3-3 1.1-.8 2.1-1.8 3-3 1.1-.8 2.1-1.8 3-3 1.1-.8 2.1-1.8 3-3 1.1-.8 2.1-1.8 3-3 1.1-.8 2.1-1.8 3-3 1.1-.8 2.1-1.8 3-3 1.1-.8 2.1-1.8 3-3 1.1-.8 2.1-1.8 3-3 1.1-.8 2.1-1.8 3-3 1.1-.8 2.1-1.8 3-3 1.1-.8 2.1-1.8 3-3 1.1-.8 2.1-1.8 3-3 1.1-.8 2.1-1.8 3-3 1.1-.8 2.1-1.8 3-3 1.1-.8 2.1-1.8 3-3 1.1-.8 2.1-1.8 3-3 1.1-.8 2.1-1.8 3-3 1.1-.8 2.1-1.8 3-3 1.1-.8 2.1-1.8 3-3 1.1-.8 2.1-1.8 3-3 1.1-.8 2.1-1.8 3-3 1.1-.8 2.1-1.8 3-3 1.1-.8 2.1-1.8 3-3 1.1-.8 2.1-1.8 3-3 1.1-.8 2.1-1.8 3-3 1.1-.8 2.1-1.8 3-3 1.1-.8 2.1-1.8 3-3 1.1-.8 2.1-1.8 3-3 1.1-.8 2.1-1.8 3-3 1.1-.8 2.1-1.8 3-3 1.1-.8 2.1-1.8 3-3 1.1-.8 2.1-1.8 3-3 1.1-.8 2.1-1.8 3-3 1.1-.8 2.1-1.8 3-3 1.1-.8 2.1-1.8 3-3 1.1-.8 2.1-1.8 3-3 1.1-.8 2.1-1.8 3-3 1.1-.8 2.1-1.8 3-3 1.1-.8 2.1-1.8 3-3 4.3-3.2 7.1-9.1 7.2-15.9l8.2-481.9c.2-12.1-8.4-21.3-17.5-18.9-26.6 7.2-78.8 17.1-128.4 1C576 240.1 527 252 507.6 260.2c-2.2.9-4.2 2.6-5.8 4.6-1.1.8-2.1 1.8-3 3-1.1.8-2.1 1.8-3 3-1.1.8-2.1 1.8-3 3-1.1.8-2.1 1.8-3 3-1.1.8-2.1 1.8-3 3-1.1.8-2.1 1.8-3 3-1.1.8-2.1 1.8-3 3V278c0-8.1-4-15.4-10-17.9-19.4-8.2-68.4-20.1-158.9 9.2-49.6 16.1-101.7 6.2-128.4-1-5.1-1.4-10 .8-13.3 5.1-1.1.8-2.1 1.8-3 3-1.1.8-2.1 1.8-3 3-1.1.8-2.1 1.8-3 3-1.1.8-2.1 1.8-3 3-1.1.8-2.1 1.8-3 3-1.1.8-2.1 1.8-3 3-1.1.8-2.1 1.8-3 3-1.1.8-2.1 1.8-3 3-1.1.8-2.1 1.8-3 3-1.1.8-2.1 1.8-3 3-1.1.8-2.1 1.8-3 3-1.1.8-2.1 1.8-3 3-1.1.8-2.1 1.8-3 3-1.1.8-2.1 1.8-3 3-1.1.8-2.1 1.8-3 3-1.1.8-2.1 1.8-3 3-1.1.8-2.1 1.8-3 3-1.1.8-2.1 1.8-3 3-1.1.8-2.1 1.8-3 3-1.1.8-2.1 1.8-3 3-1.1.8-2.1 1.8-3 3-1.1.8-2.1 1.8-3 3-1.1.8-2.1 1.8-3 3-1.1.8-2.1 1.8-3 3-1.1.8-2.1 1.8-3 3-1.1.8-2.1 1.8-3 3-1.1.8-2.1 1.8-3 3-1.1.8-2.1 1.8-3 3-1.1.8-2.1 1.8-3 3-1.1.8-2.1 1.8-3 3-1.1.8-2.1 1.8-3 3-1.1.8-2.1 1.8-3 3-1.1.8-2.1 1.8-3 3-1.1.8-2.1 1.8-3 3-1.1.8-2.1 1.8-3 3-1.1.8-2.1 1.8-3 3-1.1.8-2.1 1.8-3 3-1.1.8-2.1 1.8-3 3-1.1.8-2.1 1.8-3 3-1.1.8-2.1 1.8-3 3-1.1.8-2.1 1.8-3 3-1.1.8-2.1 1.8-3 3-1.1.8-2.1 1.8-3 3-1.1.8-2.1 1.8-3 3-1.1.8-2.1 1.8-3 3-1.1.8-2.1 1.8-3 3-1.1.8-2.1 1.8-3 3-1.1.8-2.1 1.8-3 3-1.1.8-2.1 1.8-3 3-1.1.8-2.1 1.8-3 3-.5.4-1 .8-1.5 1.3-4.1 25.6-6.3 51.8-6.3 78.6C12.5 772.7 230.6 991 499.7 991c35 0 69.2-3.7 102.2-10.7 0-.1.1-.1.1-.2 1.1-.8 2.1-1.9 3-3z" id="Layer_4"/><path class="st2" d="M470.9 260.3c-19.4-8.2-68.4-20.1-158.9 9.2-49.6 16.1-101.7 6.2-128.4-1-9.2-2.5-17.7 6.7-17.5 18.9l8.2 481.9c.2 9.5 5.8 17.4 13.1 18.3 23.5 3.1 77.3 6.9 144.3-8.8 56.5-13.2 107.6-7.8 132.7-3.4 8.7 1.5 16.5-7.3 16.5-18.7V278.2c0-8.1-4.1-15.4-10-17.9zM208 342.2l.1-1 .1-1.2.6-7.5-.6 7.5c.3-4.1 3.1-7.2 6.3-6.9 15.2 1.3 58.9 3.7 107.6-7 47-10.3 88.1-11 103.3-10.9 3.3 0 6 3.6 5.9 8l-.1 2.2c-.1 4.2-2.8 7.5-6 7.5-14.7-.1-55.5.7-100.9 10.6-30.8 6.7-59.2 8.5-80.4 8.5-13.7 0-24.3-.7-30.5-1.3-3.2-.3-5.7-4.2-5.4-8.5zm.8 56.2l-.7 8.8.7-8.8zm-.8 207.5l.8-9.7c.6.1 53.1 6.8 113.3-6.4 47-10.3 88.1-11 103.3-10.9 3.3 0 6 3.6 5.9 8l-.1 2.2c-.1 4.2-2.8 7.5-6 7.5-14.7-.1-55.5.7-100.9 10.6-30.8 6.7-59.2 8.5-80.4 8.5-13.7 0-24.3-.7-30.5-1.3-3.2-.3-5.7-4.1-5.4-8.5zm0-65.9l.8-9.7c.6.1 53.1 6.8 113.3-6.4 47-10.3 88.1-11 103.3-10.9 3.4 0 6 3.6 5.9 8l-.1 2.2c-.1 4.2-2.8 7.5-6 7.5-14.7-.1-55.5.7-100.9 10.6-30.8 6.7-59.2 8.5-80.4 8.5-13.7 0-24.3-.7-30.5-1.3-3.2-.3-5.7-4.2-5.4-8.5zm0 131.9l.8-9.7c.6.1 53.1 6.8 113.3-6.4 47-10.3 88.1-11 103.3-10.9 3.3 0 6 3.6 5.9 8l-.1 2.2c-.1 4.2-2.8 7.5-6 7.5-14.7-.1-55.5.7-100.9 10.6-30.8 6.7-59.2 8.5-80.4 8.5-13.7 0-24.3-.7-30.5-1.3-3.2-.3-5.7-4.2-5.4-8.5zM431.3 721c-.1 4.2-2.8 7.5-6 7.5-14.7-.1-55.5.7-100.9 10.6-30.8 6.7-59.2 8.5-80.4 8.5-13.7 0-24.3-.7-30.5-1.3-3.4-.3-5.8-4.2-5.5-8.5l.2-2.2-.1 1.3.1-1.3.6-7.5-.6 7.5c.3-4.1 3.1-7.2 6.3-6.9 15.2 1.3 58.9 3.7 107.6-7 47-10.3 88.1-11 103.3-10.9 3.3 0 6 3.6 5.9 8v2.2zm0-263.7c-.1 4.2-2.8 7.5-6 7.5-14.7-.1-55.5.7-100.9 10.6-30.8 6.7-59.2 8.5-80.4 8.5-13.7 0-24.3-.7-30.5-1.3-3.4-.3-5.8-4.2-5.5-8.5l.8-9.7c.6.1 53.1 6.8 113.3-6.4 47-10.3 88.1-11 103.3-10.9 3.3 0 6 3.6 5.9 8v2.2zm0-66c-.1 4.2-2.8 7.5-6 7.5-14.7-.1-55.5.7-100.9 10.6-30.8 6.7-59.2 8.5-80.4 8.5-13.7 0-24.3-.7-30.5-1.3-3.4-.3-5.8-4.2-5.5-8.5l.2-2.2c.3-4.1 3.1-7.2 6.3-6.9 15.2 1.3 58.9 3.7 107.6-7 47-10.3 88.1-11 103.3-10.9 3.3 0 6 3.6 5.9 8v2.2zm66.4-113.1v478.4c0 11.4 7.7 20.2 16.5 18.7 25.1-4.4 76.2-9.8 132.7 3.4 67 15.7 120.8 11.9 144.3 8.8 7.3-1 12.9-8.8 13.1-18.3l8.2-481.9c.2-12.1-8.4-21.3-17.5-18.9-26.6 7.2-78.8 17.1-128.4 1-90.5-29.3-139.5-17.4-158.9-9.2-6 2.6-10 9.9-10 18zm267.4 72.5c-6.2.6-16.8 1.3-30.5 1.3-21.1 0-49.6-1.7-80.4-8.5-45.4-9.9-86.2-10.7-100.9-10.6-3.2 0-5.9-3.3-6-7.5l-.1-2.2c-.1-4.3 2.6-7.9 5.9-8 15.1-.1 56.3.6 103.3 10.9 48.7 10.7 92.4 8.3 107.6 7 3.2-.3 6 2.8 6.3 6.9l-.6-7.5.6 7.5.1 1.2.1 1c.4 4.3-2.1 8.2-5.4 8.5zm4.7 47.7l.7 8.8-.7-8.8zm-4.7 216c-6.2.6-16.8 1.3-30.5 1.3-21.1 0-49.6-1.7-80.4-8.5-45.4-9.9-86.2-10.7-100.9-10.6-3.2 0-5.9-3.3-6-7.5l-.1-2.2c-.1-4.3 2.6-7.9 5.9-8 15.1-.1 56.3.6 103.3 10.9 60.3 13.2 112.7 6.4 113.3 6.4l.8 9.7c.4 4.4-2.1 8.2-5.4 8.5zm0-65.9c-6.2.6-16.8 1.3-30.5 1.3-21.1 0-49.6-1.7-80.4-8.5-45.4-9.9-86.2-10.7-100.9-10.6-3.2 0-5.9-3.3-6-7.5l-.1-2.2c-.1-4.3 2.6-7.9 5.9-8 15.1-.1 56.3.6 103.3 10.9 60.3 13.2 112.7 6.5 113.3 6.4l.8 9.7c.4 4.3-2.1 8.2-5.4 8.5zm0 131.9c-6.2.6-16.8 1.3-30.5 1.3-21.1 0-49.6-1.7-80.4-8.5-45.4-9.9-86.2-10.7-100.9-10.6-3.2 0-5.9-3.3-6-7.5l-.1-2.2c-.1-4.3 2.6-7.9 5.9-8 15.1-.1 56.3.6 103.3 10.9 60.3 13.2 112.7 6.4 113.3 6.4l.8 9.7c.4 4.3-2.1 8.2-5.4 8.5zm-217.9 38.4c-.1-4.3 2.6-7.9 5.9-8 15.1-.1 56.3.6 103.3 10.9 48.7 10.7 92.4 8.3 107.6 7 3.2-.3 6 2.8 6.3 6.9l-.6-7.5.6 7.5.1 1.3-.1-1.3.2 2.2c.3 4.3-2.1 8.2-5.5 8.5-6.2.6-16.8 1.3-30.5 1.3-21.1 0-49.6-1.7-80.4-8.5-45.4-9.9-86.2-10.7-100.9-10.6-3.2 0-5.9-3.3-6-7.5v-2.2zm0-263.7c-.1-4.3 2.6-7.9 5.9-8 15.1-.1 56.3.6 103.3 10.9 60.3 13.2 112.7 6.4 113.3 6.4l.8 9.7c.3 4.3-2.1 8.2-5.5 8.5-6.2.6-16.8 1.3-30.5 1.3-21.1 0-49.6-1.7-80.4-8.5-45.4-9.9-86.2-10.7-100.9-10.6-3.2 0-5.9-3.3-6-7.5v-2.2zm0-66c-.1-4.3 2.6-7.9 5.9-8 15.1-.1 56.3.6 103.3 10.9 48.8 10.7 92.4 8.3 107.6 7 3.2-.3 6 2.8 6.3 6.9l.2 2.2c.3 4.3-2.1 8.2-5.5 8.5-6.2.6-16.8 1.3-30.5 1.3-21.1 0-49.6-1.7-80.4-8.5-45.4-9.9-86.2-10.7-100.9-10.6-3.2 0-5.9-3.3-6-7.5v-2.2z" id="Layer_3"/></svg>