<svg xmlns="http://www.w3.org/2000/svg" viewBox="0 0 1000 1000"><path d="M191.1 485c8.3-158.5 135.3-285.6 293.9-293.9v-50C298.9 149.4 149.5 298.8 141.1 485h50zm326.8-293.9c158.5 8.3 285.6 135.3 293.9 293.9h50C853.4 298.8 704 149.4 517.9 141.1v50zM485 811.7c-158.5-8.3-285.6-135.3-293.9-293.9h-50C149.5 704 298.9 853.4 485 861.7v-50zm326.8-293.8c-8.3 158.5-135.3 285.6-293.9 293.9v50C704 853.4 853.4 704 861.8 517.9h-50z" fill="#fff" opacity=".82"/><path d="M501.5 222.2c-154.2 0-279.2 125-279.2 279.2s125 279.2 279.2 279.2 279.2-125 279.2-279.2-125-279.2-279.2-279.2zm0 557.4c-153.6 0-278.2-124.5-278.2-278.2s124.5-278.2 278.2-278.2 278.2 124.5 278.2 278.2-124.6 278.2-278.2 278.2z" fill="#fff" opacity=".82"/><path d="M505.5 218.1h1.3v22.2h-1.3zm73.164 10.723l1.255.336-5.745 21.443-1.256-.336zm67.989 29.265l1.126.65-11.097 19.228-1.126-.65zm57.91 45.902l.92.919-15.696 15.7-.919-.92zm44.205 59.291l.65 1.126-19.222 11.104-.65-1.125zm27.317 68.602l.337 1.256-21.441 5.752-.337-1.256zm8.618 73.499l.001 1.3-22.2.009v-1.3zm-10.57 73.114l-.336 1.256-21.446-5.736.336-1.256zm-29.318 67.94l-.65 1.126-19.231-11.091.65-1.126zm-45.74 58.07l-.919.92-15.706-15.69.919-.92zm-59.239 44.192l-1.125.651-11.111-19.218 1.125-.651zm-68.814 27.452l-1.255.337-5.761-21.439 1.255-.337zm-73.452 8.597l-1.3.001-.016-22.2 1.3-.001zm-73.16-10.649l-1.256-.335 5.728-21.448 1.256.336zm-67.96-29.24l-1.126-.65 11.083-19.236 1.126.65zm-58.034-45.745l-.92-.918 15.682-15.714.92.919zm-44.179-59.325l-.651-1.125 19.214-11.12.651 1.125zm-27.405-68.634l-.338-1.255 21.436-5.768.338 1.255zm-8.68-73.496l-.001-1.3 22.2-.025.001 1.3zm10.598-73.148l.335-1.255 21.45 5.72-.336 1.257zm29.186-67.942l.649-1.127 19.24 11.076-.648 1.126zm45.834-58.031l.918-.92 15.717 15.677-.918.92zm59.238-44.341l1.125-.652 11.126 19.21-1.125.651zm68.655-27.319l1.256-.338 5.776 21.436-1.255.338z" fill="#fff" opacity=".82"/><path d="M506.2 987.1c-64.9 0-127.9-12.7-187.3-37.8-57.3-24.2-108.7-58.9-152.9-103.1S87.2 750.6 62.9 693.3C37.8 634 25.1 571 25.1 506s12.7-127.9 37.8-187.3C87.1 261.4 121.8 210 166 165.8c44.2-44.2 95.6-78.9 152.9-103.1C378.2 37.7 441.2 25 506.2 25s127.9 12.7 187.3 37.8c57.3 24.2 108.7 58.9 152.9 103.1 44.2 44.2 78.9 95.6 103.1 152.9 25.1 59.3 37.8 122.3 37.8 187.3S974.5 634 949.4 693.3c-24.2 57.3-58.9 108.7-103.1 152.9-44.2 44.2-95.6 78.9-152.9 103.1-59.3 25.1-122.3 37.8-187.2 37.8zm0-959.1c-263.6 0-478 214.4-478 478s214.4 478 478 478 478-214.4 478-478c0-263.5-214.4-478-478-478z" fill="#fff" opacity=".82"/><path d="M431.356 853.03c-140.187-27.973-252.159-140.464-281.418-282.724-10.418-50.65-10.638-49.967 16.1-49.967h22.816l2.967 23.75c16.573 132.641 125.639 244.53 258.495 265.185l31.887 4.957v22.546c0 21.866-.35 22.533-11.652 22.147-6.41-.22-24.047-2.871-39.195-5.894z" fill="#fff" fill-opacity=".5" opacity=".82"/></svg>