<svg xmlns="http://www.w3.org/2000/svg" viewBox="0 0 1000 1000"><style>.st0{fill:#f47a0b}.st1{fill:#e56e0c}.st2{fill:#fff}</style><ellipse class="st0" cx="499.7" cy="503.5" rx="487.2" ry="487.5" id="Layer_2"/><path class="st1" d="M531.5 987.6l3.1-2.9c.4-.3.6-.7.9-1.1l3.1-2.9c.4-.3.6-.7.9-1.1l3.1-2.9c.4-.3.6-.7.9-1.1l3.1-2.9c.4-.3.6-.7.9-1.1l3.1-2.9c.4-.3.6-.7.9-1.1l3.1-2.9c.4-.3.6-.7.9-1.1l3.1-2.9c.4-.3.6-.7.9-1.1l3.1-2.9c.4-.3.6-.7.9-1.1l3.1-2.9c.4-.3.6-.7.9-1.1l3.1-2.9c.4-.3.6-.7.9-1.1l3.1-2.9c.4-.3.6-.7.9-1.1l3.1-2.9c.4-.3.6-.7.9-1.1l3.1-2.9c.4-.3.6-.7.9-1.1l3.1-2.9c.4-.3.6-.7.9-1.1l3.1-2.9c.4-.3.6-.7.9-1.1l3.1-2.9c.4-.3.6-.7.9-1.1l3.1-2.9c.4-.3.6-.7.9-1.1l3.1-2.9c.4-.3.6-.7.9-1.1l3.1-2.9c.4-.3.6-.7.9-1.1l3.1-2.9c.4-.3.6-.7.9-1.1l3.1-2.9c.4-.3.6-.7.9-1.1l3.1-2.9c.4-.3.6-.7.9-1.1l3.1-2.9c.4-.3.6-.7.9-1.1l3.1-2.9c.4-.3.6-.7.9-1.1l3.1-2.9c.4-.3.6-.7.9-1.1l3.1-2.9c.4-.3.6-.7.9-1.1l3.1-2.9c.4-.3.6-.7.9-1.1l3.1-2.9c.4-.3.6-.7.9-1.1l3.1-2.9c.4-.3.6-.7.9-1.1l3.1-2.9c.4-.3.6-.7.9-1.1l3.1-2.9c.4-.3.6-.7.9-1.1l3.1-2.9c.4-.3.6-.7.9-1.1l3.1-2.9c.4-.3.6-.7.9-1.1l3.1-2.9c.4-.3.6-.7.9-1.1l3.1-2.9c.4-.3.6-.7.9-1.1l3.1-2.9c.4-.3.6-.7.9-1.1l3.1-2.9c.4-.3.6-.7.9-1.1l3.1-2.9c.4-.3.6-.7.9-1.1l3.1-2.9c.4-.3.6-.7.9-1.1l3.1-2.9c.4-.3.6-.7.9-1.1l3.1-2.9c.4-.3.6-.7.9-1.1l3.1-2.9c.4-.3.6-.7.9-1.1l3.1-2.9c.4-.3.6-.7.9-1.1l3.1-2.9c.4-.3.6-.7.9-1.1l3.1-2.9c.4-.3.6-.7.9-1.1l3.1-2.9c.4-.3.6-.7.9-1.1l3.1-2.9c.4-.3.6-.7.9-1.1l3.1-2.9c.4-.3.6-.7.9-1.1l3.1-2.9c.4-.3.6-.7.9-1.1l3.1-2.9c.4-.3.6-.7.9-1.1l3.1-2.9c.4-.3.6-.7.9-1.1l3.1-2.9c.4-.3.6-.7.9-1.1l3.1-2.9c.4-.3.6-.7.9-1.1l3.1-2.9c.4-.3.6-.7.9-1.1l3.1-2.9c.4-.3.6-.7.9-1.1l3.1-2.9c.4-.3.6-.7.9-1.1l3.1-2.9c.4-.3.6-.7.9-1.1l3.1-2.9c.4-.3.6-.7.9-1.1l3.1-2.9c.4-.3.6-.7.9-1.1l3.1-2.9c.4-.3.6-.7.9-1.1l3.1-2.9c.4-.3.6-.7.9-1.1l3.1-2.9c1.1-1 1.7-2.4 1.7-3.9V734c0-2.2-1.8-4-4-4h-9.1c-2.7 0-4.8-2.2-4.8-4.8v-30.9c0-3.4-1.7-6.5-4.6-8.3l-31.2-19.7c-2.6-1.7-5.9-1.8-8.7-.4l-5 2.5c-3.2 1.6-6.8 2.4-10.4 2.3.6-.6 1.1-1.2 1.6-1.9l1.8-1.5c.9-.7 1.6-1.6 2.2-2.5l1.8-1.5c.9-.7 1.6-1.6 2.2-2.5l1.8-1.5c.9-.7 1.6-1.6 2.2-2.5l1.8-1.5c.9-.7 1.6-1.6 2.2-2.5l1.8-1.5c.9-.7 1.6-1.6 2.2-2.5l1.8-1.5c.9-.7 1.6-1.6 2.2-2.5l1.8-1.5c.9-.7 1.6-1.6 2.2-2.5l1.8-1.5c.9-.7 1.6-1.6 2.2-2.5l1.8-1.5c.9-.7 1.6-1.6 2.2-2.5l1.8-1.5c.9-.7 1.6-1.6 2.2-2.5l1.8-1.5c.9-.7 1.6-1.6 2.2-2.5l1.8-1.5c.9-.7 1.6-1.6 2.2-2.5l1.8-1.5c.9-.7 1.6-1.6 2.2-2.5l1.8-1.5c.9-.7 1.6-1.6 2.2-2.5l1.8-1.5c6.4-5.4 5.3-15.6-2.2-19.4l-107.2-55.5c1.1-.8 2.1-1.9 2.7-3.2 1.7-.8 3.1-2.2 4-4 1.7-.8 3.1-2.2 4-4 1.7-.8 3.1-2.2 4-4 2.8-1.4 4.9-4.3 4.9-7.9V504c0-5.2 1.6-10.2 4.5-14.3l1.4-1.3c.6-.5 1.1-1.1 1.6-1.7l2.4-2.3c.6-.5 1.1-1.1 1.6-1.7l2.4-2.3c.6-.5 1.1-1.1 1.6-1.7l2.4-2.3c.6-.5 1.1-1.1 1.6-1.7l2.4-2.3c4.3-4.1 6.7-9.8 6.7-15.7v-18.9c0-5.5-2.1-10.8-6-14.8L674 403.8c-4.5-4.7-10.8-7.3-17.3-7.3H643c.8-.7 1.5-1.5 2.2-2.3 1.4-1.2 2.8-2.6 4-4 1.4-1.2 2.8-2.6 4-4 1.4-1.2 2.8-2.6 4-4 1.4-1.2 2.8-2.6 4-4 1.4-1.2 2.8-2.6 4-4 1.4-1.2 2.8-2.6 4-4 1.4-1.2 2.8-2.6 4-4 1.4-1.2 2.8-2.6 4-4 1.4-1.2 2.8-2.6 4-4 1.4-1.2 2.8-2.6 4-4 1.4-1.2 2.8-2.6 4-4 7.9-6.8 12.9-16.9 12.9-28.2 0-9.9-3.9-18.9-10.2-25.6.7-.7 1.4-1.5 2-2.3 1.5-1.2 2.8-2.5 4-4 1.5-1.2 2.8-2.5 4-4 1.5-1.2 2.8-2.5 4-4 1.5-1.2 2.8-2.5 4-4 1.5-1.2 2.8-2.5 4-4 1.5-1.2 2.8-2.5 4-4 1.5-1.2 2.8-2.5 4-4 1.5-1.2 2.8-2.5 4-4 1.5-1.2 2.8-2.5 4-4 5.5-4.3 8.9-10.9 8.9-18.1v-14.6c0-13.8-11.2-25-24.9-25H612.1c-13.5 0-25.7 5.9-34 15.4-1.4 1.2-2.7 2.6-4 4-1.4 1.2-2.7 2.6-4 4-1.4 1.2-2.7 2.6-4 4-1.4 1.2-2.7 2.6-4 4-1.4 1.2-2.7 2.6-4 4-1.4 1.2-2.7 2.6-4 4-1.4 1.2-2.7 2.6-4 4-1.4 1.2-2.7 2.6-4 4-1.4 1.2-2.7 2.6-4 4-1.4 1.2-2.7 2.6-4 4-1.4 1.2-2.7 2.6-4 4-1.4 1.2-2.7 2.6-4 4-1.4 1.2-2.7 2.6-4 4-1.4 1.2-2.7 2.6-4 4-1.4 1.2-2.7 2.6-4 4-1.4 1.2-2.7 2.6-4 4-1.4 1.2-2.7 2.6-4 4-1.4 1.2-2.7 2.6-4 4-1.4 1.2-2.7 2.6-4 4-1.4 1.2-2.7 2.6-4 4-1.4 1.2-2.7 2.6-4 4-1.4 1.2-2.7 2.6-4 4-1.4 1.2-2.7 2.6-4 4-1.4 1.2-2.7 2.6-4 4-1.4 1.2-2.7 2.6-4 4-1.4 1.2-2.7 2.6-4 4-1.4 1.2-2.7 2.6-4 4-1.4 1.2-2.7 2.6-4 4-1.4 1.2-2.7 2.6-4 4-1.4 1.2-2.7 2.6-4 4-1.4 1.2-2.7 2.6-4 4-1.4 1.2-2.7 2.6-4 4-1.4 1.2-2.7 2.6-4 4-1.4 1.2-2.7 2.6-4 4-1.4 1.2-2.7 2.6-4 4-1.4 1.2-2.7 2.6-4 4-1.4 1.2-2.7 2.6-4 4-1.4 1.2-2.7 2.6-4 4-1.4 1.2-2.7 2.6-4 4-1.4 1.2-2.7 2.6-4 4-1.4 1.2-2.7 2.6-4 4-1.4 1.2-2.7 2.6-4 4-1.4 1.2-2.7 2.6-4 4-1.4 1.2-2.7 2.6-4 4-1.4 1.2-2.7 2.6-4 4-1.4 1.2-2.7 2.6-4 4-1.4 1.2-2.7 2.6-4 4-1.4 1.2-2.7 2.6-4 4-1.4 1.2-2.7 2.6-4 4-1.4 1.2-2.7 2.6-4 4-1.4 1.2-2.7 2.6-4 4-1.4 1.2-2.7 2.6-4 4-.9.8-1.8 1.6-2.6 2.5l-3.4-15.4c-1.7-7.7-7.1-14.1-14.4-17.1l-86.9-35.4c-7.7-3.2-16.3-3.4-24.2-.8l-23.1 7.8.1-.1c.8-.6 1.4-1.4 1.8-2.2l2.2-1.8c.8-.6 1.4-1.4 1.8-2.2l2.2-1.8c.8-.6 1.4-1.4 1.8-2.2l2.2-1.8c.8-.6 1.4-1.4 1.8-2.2l2.2-1.8c.8-.6 1.4-1.4 1.8-2.2l2.2-1.8c3.4-2.8 3.6-7.9.4-10.9l-26.7-25.8c-3.4-3.3-8-5.2-12.8-5.2h-12.4c-5.2 0-10.3 1.5-14.7 4.4l-5.2 3.5c-1.2.8-2.1 1.9-2.7 3.2l-1.2.8c-1.2.8-2.1 1.9-2.7 3.2l-1.2.8c-1.2.8-2.1 1.9-2.7 3.2l-1.2.8c-1.2.8-2.1 1.9-2.7 3.2l-1.2.8c-1.2.8-2.1 1.9-2.7 3.2l-1.2.8c-1.2.8-2.1 1.9-2.7 3.2l-1.2.8c-1.2.8-2.1 1.9-2.7 3.2l-1.2.8c-1.2.8-2.1 1.9-2.7 3.2l-1.2.8c-1.2.8-2.1 1.9-2.7 3.2l-1.2.8c-1.2.8-2.1 1.9-2.7 3.2l-1.2.8c-1.2.8-2.1 1.9-2.7 3.2l-1.2.8c-1.2.8-2.1 1.9-2.7 3.2l-1.2.8c-1.2.8-2.1 1.9-2.7 3.2l-1.2.8c-1.2.8-2.1 1.9-2.7 3.2l-1.2.8c-1.2.8-2.1 1.9-2.7 3.2l-1.2.8c-1.2.8-2.1 1.9-2.7 3.2l-1.2.8c-1.2.8-2.1 1.9-2.7 3.2l-1.2.8c-1.2.8-2.1 1.9-2.7 3.2l-1.2.8c-1.2.8-2.1 1.9-2.7 3.2l-1.2.8c-1.2.8-2.1 1.9-2.7 3.2l-1.2.8c-1.2.8-2.1 1.9-2.7 3.2l-1.2.8c-1.2.8-2.1 1.9-2.7 3.2l-1.2.8c-1.2.8-2.1 1.9-2.7 3.2l-1.2.8c-1.2.8-2.1 1.9-2.7 3.2l-1.2.8c-1.2.8-2.1 1.9-2.7 3.2l-1.2.8c-1.2.8-2.1 1.9-2.7 3.2l-1.2.8c-1.2.8-2.1 1.9-2.7 3.2l-1.2.8c-1.2.8-2.1 1.9-2.7 3.2l-1.2.8c-1.2.8-2.1 1.9-2.7 3.2l-1.2.8c-1.2.8-2.1 1.9-2.7 3.2l-1.2.8c-1.2.8-2.1 1.9-2.7 3.2l-1.2.8c-1.2.8-2.1 1.9-2.7 3.2l-1.2.8c-1.2.8-2.1 1.9-2.7 3.2l-1.2.8c-1.2.8-2.1 1.9-2.7 3.2l-1.2.8c-1.2.8-2.1 1.9-2.7 3.2l-1.2.8c-1.2.8-2.1 1.9-2.7 3.2l-1.2.8c-1.2.8-2.1 1.9-2.7 3.2l-1.2.8c-1.2.8-2.1 1.9-2.7 3.2l-1.2.8c-.1 0-.1.1-.2.1-1.2 13.7-1.8 27.5-1.8 41.5C12.5 772.7 230.6 991 499.7 991c9.9 0 19.7-.3 29.4-.9l1.5-1.4c.4-.3.7-.7.9-1.1z" id="Layer_4"/><g id="Layer_3"><path class="st2" d="M760 613.2l-41.4 35c-8.1 6.8-19.3 8.8-29.2 5-50.8-19.2-205.2-77.2-218.9-76.1-16.3 1.3-34 24.7-60 30.9-26.1 6.2-58.3 4.4-84.8-8-18.6-8.7-33.2-26-40.3-35.6-3.1-4.1-4.7-9.2-4.7-14.3 0-7.7 4.7-14.7 11.8-17.6l86.1-35.2c15.2-6.2 31.5-9.1 47.9-8.5l114.8 4.3c15.6.6 30.9 4.6 44.8 11.8l171.7 88.8c7.4 3.9 8.6 14.1 2.2 19.5zM293.1 501.5l71.1-26.4c8.3-3.1 13.1-11.8 11.2-20.5l-9.8-44.6c-1.7-7.7-7.1-14.1-14.4-17.1l-86.9-35.4c-7.7-3.2-16.3-3.4-24.2-.8L197.7 371c-6.9 2.3-10.6 9.7-8.3 16.6l15.8 48c2.8 8.6 7.9 16.4 14.6 22.5l40.8 37.1c8.8 8 21.3 10.4 32.5 6.3zm-95.4-198.7h-12.4c-5.2 0-10.3 1.5-14.7 4.4l-5.2 3.5c-3.7 2.5-4.7 7.4-2.2 11.1l20.3 30.3c3.2 4.7 8.7 7.2 14.3 6.5l18.7-2.5c4.9-.7 9.6-2.7 13.4-5.8l6.7-5.5c3.4-2.8 3.6-7.9.4-10.9l-26.7-25.8c-3.2-3.5-7.8-5.3-12.6-5.3zM417 468.9l-5.3-6.5c-1.5-1.9-1-4.7 1.1-5.8l33-18.1c6.9-3.8 14.7-5.8 22.7-5.8h49.2c10.3 0 20.1 4.4 26.9 12.1l13.1 14.8c3.8 4.3 5.9 9.9 5.9 15.7v8.6c0 2.2-1.8 4-4 4.1h-7.2c-2.5 0-4.6-2.1-4.6-4.6V477c0-5.2-2.1-10.2-5.8-13.9l-7.1-7c-5-4.9-11.7-7.6-18.7-7.6h-47.6c-5.9 0-11.7 1.5-16.9 4.3l-29 17c-2 1.2-4.3.7-5.7-.9z"/><path class="st2" d="M274.6 737.6l412 79.2c5.1 1 10.4-.5 14.3-4.1l76.1-70.5c1.1-1 1.7-2.4 1.7-3.9v-2.8c0-2.2-1.8-4-4-4h-9.1c-2.7 0-4.8-2.2-4.8-4.8v-30.9c0-3.4-1.7-6.5-4.6-8.3L725 667.8c-2.6-1.7-5.9-1.8-8.7-.4l-5 2.5c-5.2 2.6-11.3 3-16.8 1.1l-195.2-69.9c-13.8-4.9-29.1-2.8-41 5.8L437 622.2c-9.2 6.6-20.2 10.1-31.4 9.9l-67-1c-5.9-.1-11.8-1.4-17.2-3.9l-31-14.2c-3.7-1.7-7.7 1.8-6.5 5.7 7.2 23 24.4 41.6 46.9 50.4 5.2 2 5.9 9.1 1.3 12.1l-60.7 40c-2.4 1.6-3.9 4.3-3.9 7.2v.4c-.1 4.3 2.9 8 7.1 8.8zm382.1-341.2h-60.8c-2.6 0-4.6-2.1-4.6-4.6v-3.5c0-2.8-2.3-5.1-5.1-5.1H565c-2.8 0-5.1 2.3-5.1 5.1v3.5c0 2.6-2.1 4.6-4.6 4.6h-15.6c-5.2 0-10.3 1.4-14.7 4l-23 13.3c-4.1 2.4-2.4 8.6 2.3 8.6l36.7.1c6.2 0 12.1 2.8 16.1 7.6l18.1 21.8c3.3 3.9 5 8.9 5 14l-.1 10.2c-.1 7.2 4.1 13.8 10.7 16.8l66.9 30.5c5.8 2.6 12.4-1.6 12.4-8V504c0-6.9 2.8-13.5 7.8-18.3l13.9-13.3c4.3-4.1 6.7-9.8 6.7-15.7v-18.9c0-5.5-2.1-10.8-6-14.8L674 403.8c-4.5-4.7-10.8-7.4-17.3-7.4zm-89.9-150.1v130.9h18.5V248.4c0-16.3 13.2-29.6 29.6-29.6h95.4c6.6 0 11.9 5.3 11.9 11.9v3.9c0 6.3-4.1 11.8-10 13.7l-40.2 13c-9.8 3.1-16.5 12.3-16.5 22.6v2.4c-17 4.4-29.3 20.6-27.7 39.3 1.6 18 16.4 32.5 34.4 33.7 21.6 1.4 39.6-15.7 39.6-37 0-17.3-11.8-31.8-27.8-35.9v-2.5c0-3.5 2.3-6.6 5.6-7.7l42.6-13.7c9.5-3.1 16-11.9 16-21.9V226c0-13.8-11.2-25-24.9-25H612.1c-25-.1-45.3 20.2-45.3 45.3z"/></g></svg>