<svg xmlns="http://www.w3.org/2000/svg" viewBox="0 0 1000 1000"><style>.st0{fill:#008c8c}.st1{fill:none}.st2{fill:#017572}.st3{fill:#fff}</style><ellipse class="st0" cx="499.7" cy="503.5" rx="487.2" ry="487.5" id="Layer_2"/><g id="Layer_4"><path class="st1" d="M986.9 503.5C986.9 234.2 768.8 16 499.7 16S12.5 234.2 12.5 503.5c0 5.3.1 10.5.3 15.7.5-.5 1.1-1.1 1.7-1.6.9-1 1.9-2 3-3 .9-1 1.9-2 3-3 .9-1 1.9-2 3-3 .9-1 1.9-2 3-3 .9-1 1.9-2 3-3 .9-1 1.9-2 3-3 .9-1 1.9-2 3-3 .9-1 1.9-2 3-3 .9-1 1.9-2 3-3 .9-1 1.9-2 3-3 .9-1 1.9-2 3-3 .9-1 1.9-2 3-3 .9-1 1.9-2 3-3 .9-1 1.9-2 3-3 .9-1 1.9-2 3-3 .9-1 1.9-2 3-3 .9-1 1.9-2 3-3 .9-1 1.9-2 3-3 .9-1 1.9-2 3-3 .9-1 1.9-2 3-3 .9-1 1.9-2 3-3 .9-1 1.9-2 3-3 .9-1 1.9-2 3-3 .9-1 1.9-2 3-3 .9-1 1.9-2 3-3 .9-1 1.9-2 3-3 .9-1 1.9-2 3-3 .9-1 1.9-2 3-3 .9-1 1.9-2 3-3 .9-1 1.9-2 3-3 .9-1 1.9-2 3-3 .9-1 1.9-2 3-3 .9-1 1.9-2 3-3 .9-1 1.9-2 3-3 .9-1 1.9-2 3-3 .9-1 1.9-2 3-3 .9-1 1.9-2 3-3 .9-1 1.9-2 3-3 .9-1 1.9-2 3-3 .9-1 2-2.1 3.1-3.1 4.9-7.8 10.4-14.7 16.4-20.4l3-3 3-3 3-3 3-3 3-3 3-3 3-3 3-3 3-3 3-3 3-3 3-3 3-3 3-3 3-3 3-3 3-3 3-3 3-3 3-3 3-3 3-3 3-3 3-3 3-3 3-3 3-3 3-3 3-3 3-3 3-3 3-3 3-3 3-3 3-3 3-3 3-3 3-3 3-3 3-3 3-3 3-3 3-3 3-3 3-3 3-3 3-3 3-3 3-3 3-3 3-3 3-3 3-3 3-3 3-3 3-3 3-3 3-3 3-3 3-3 3-3 3-3 3-3 3-3 3-3 3-3c8.6-9 18.5-15.6 29.4-19.2 60.9-20.2 90.2 33.1 125.9 33.1s47-37.4 72.4-37.7c39.8-.5 70.6 14.2 90.5 107.9 12 56.7-3.3 128-14.3 196.5.9-1 1.9-2 3-3 .9-1 1.9-2 3-3 .9-1 1.9-2 3-3 .9-1 1.9-2 3-3 .9-1 1.9-2 3-3 .9-1 1.9-2 3-3 .9-1 1.9-2 3-3 .9-1 1.9-2 3-3 .9-1 1.9-2 3-3 .9-1 1.9-2 3-3 .9-1 1.9-2 3-3 .9-1 1.9-2 3-3 .9-1 1.9-2 3-3 .9-1 1.9-2 3-3 .9-1 1.9-2 3-3 .9-1 1.9-2 3-3 10.8-12.1 38-25.4 76.7-23.8 50.8 2.2 83.8 32.9 76.8 42-.6.8-1.4 1.3-2.2 1.4-.2.6-.4 1.1-.8 1.6-.6.8-1.4 1.3-2.2 1.4-.2.6-.4 1.1-.8 1.6-.6.8-1.4 1.3-2.2 1.4-.2.6-.4 1.1-.8 1.6-.6.8-1.4 1.3-2.2 1.4-.2.6-.4 1.1-.8 1.6-.6.8-1.4 1.3-2.2 1.4-.2.6-.4 1.1-.8 1.6-.6.8-1.4 1.3-2.2 1.4-.2.6-.4 1.1-.8 1.6-.6.8-1.4 1.3-2.2 1.4-.2.6-.4 1.1-.8 1.6-.6.8-1.4 1.3-2.2 1.4-.1.5-.3.9-.6 1.3 41.6 38.4 50.4 123 35.4 185.8-10 41.6-36 97.5-89.3 150.2l-3 3-3 3-3 3-3 3-3 3-3 3-3 3-3 3-3 3-3 3-3 3-3 3-3 3-3 3-3 3-3 3-3 3-3 3-3 3-3 3-3 3-3 3-3 3-3 3-3 3-3 3-3 3-3 3-3 3-3 3-3 3-3 3-3 3-3 3-3 3-3 3-3 3-3 3-3 3-3 3-3 3-3 3-3 3-3 3-3 3-3 3-3 3-3 3-3 3-3 3-3 3-3 3-3 3-3 3-3 3-3 3-3 3-3 3-3 3-3 3-3 3-3 3-3 3-3 3-2.4 2.4c229.6-39.1 404.6-239.4 404.6-480.5z"/><path class="st2" d="M587.5 978.7l3-3 3-3 3-3 3-3 3-3 3-3 3-3 3-3 3-3 3-3 3-3 3-3 3-3 3-3 3-3 3-3 3-3 3-3 3-3 3-3 3-3 3-3 3-3 3-3 3-3 3-3 3-3 3-3 3-3 3-3 3-3 3-3 3-3 3-3 3-3 3-3 3-3 3-3 3-3 3-3 3-3 3-3 3-3 3-3 3-3 3-3 3-3 3-3 3-3 3-3 3-3 3-3 3-3 3-3 3-3 3-3 3-3 3-3 3-3 3-3 3-3 3-3 3-3c53.3-52.8 79.3-108.6 89.3-150.2 15.1-62.7 6.3-147.4-35.4-185.8.3-.4.5-.8.6-1.3.9-.2 1.6-.6 2.2-1.4.4-.5.6-1 .8-1.6.9-.2 1.6-.6 2.2-1.4.4-.5.6-1 .8-1.6.9-.2 1.6-.6 2.2-1.4.4-.5.6-1 .8-1.6.9-.2 1.6-.6 2.2-1.4.4-.5.6-1 .8-1.6.9-.2 1.6-.6 2.2-1.4.4-.5.6-1 .8-1.6.9-.2 1.6-.6 2.2-1.4.4-.5.6-1 .8-1.6.9-.2 1.6-.6 2.2-1.4.4-.5.6-1 .8-1.6.9-.2 1.6-.6 2.2-1.4 7.1-9-26-39.8-76.8-42-38.7-1.7-65.9 11.7-76.7 23.8-1.1 1-2.1 2-3 3-1.1 1-2.1 2-3 3-1.1 1-2.1 2-3 3-1.1 1-2.1 2-3 3-1.1 1-2.1 2-3 3-1.1 1-2.1 2-3 3-1.1 1-2.1 2-3 3-1.1 1-2.1 2-3 3-1.1 1-2.1 2-3 3-1.1 1-2.1 2-3 3-1.1 1-2.1 2-3 3-1.1 1-2.1 2-3 3-1.1 1-2.1 2-3 3-1.1 1-2.1 2-3 3-1.1 1-2.1 2-3 3-1.1 1-2.1 2-3 3 11-68.5 26.4-139.8 14.3-196.5-19.9-93.7-50.7-108.4-90.5-107.9-25.4.3-36.7 37.7-72.4 37.7S439 139.8 378.2 160c-10.9 3.6-20.7 10.2-29.4 19.2l-3 3-3 3-3 3-3 3-3 3-3 3-3 3-3 3-3 3-3 3-3 3-3 3-3 3-3 3-3 3-3 3-3 3-3 3-3 3-3 3-3 3-3 3-3 3-3 3-3 3-3 3-3 3-3 3-3 3-3 3-3 3-3 3-3 3-3 3-3 3-3 3-3 3-3 3-3 3-3 3-3 3-3 3-3 3-3 3-3 3-3 3-3 3-3 3-3 3-3 3-3 3-3 3-3 3-3 3-3 3-3 3-3 3-3 3-3 3-3 3-3 3-3 3-3 3-3 3-3 3-3 3c-6 5.7-11.5 12.5-16.4 20.4-1.2 1-2.2 2.1-3.1 3.1-1.1 1-2.1 2-3 3-1.1 1-2.1 2-3 3-1.1 1-2.1 2-3 3-1.1 1-2.1 2-3 3-1.1 1-2.1 2-3 3-1.1 1-2.1 2-3 3-1.1 1-2.1 2-3 3-1.1 1-2.1 2-3 3-1.1 1-2.1 2-3 3-1.1 1-2.1 2-3 3-1.1 1-2.1 2-3 3-1.1 1-2.1 2-3 3-1.1 1-2.1 2-3 3-1.1 1-2.1 2-3 3-1.1 1-2.1 2-3 3-1.1 1-2.1 2-3 3-1.1 1-2.1 2-3 3-1.1 1-2.1 2-3 3-1.1 1-2.1 2-3 3-1.1 1-2.1 2-3 3-1.1 1-2.1 2-3 3-1.1 1-2.1 2-3 3-1.1 1-2.1 2-3 3-1.1 1-2.1 2-3 3-1.1 1-2.1 2-3 3-1.1 1-2.1 2-3 3-1.1 1-2.1 2-3 3-1.1 1-2.1 2-3 3-1.1 1-2.1 2-3 3-1.1 1-2.1 2-3 3-1.1 1-2.1 2-3 3-1.1 1-2.1 2-3 3-1.1 1-2.1 2-3 3-1.1 1-2.1 2-3 3-1.1 1-2.1 2-3 3-1.1 1-2.1 2-3 3-1.1 1-2.1 2-3 3-1.1 1-2.1 2-3 3-1.1 1-2.1 2-3 3-.6.5-1.1 1.1-1.7 1.6C21.1 781.2 235.9 991 499.7 991c28.1 0 55.6-2.4 82.4-7l2.4-2.4c1-.9 2-1.9 3-2.9z"/></g><g id="Layer_3"><path class="st3" d="M667.1 263.2c-19.9-93.7-50.7-108.4-90.5-107.9-25.4.3-36.7 37.7-72.4 37.7s-65.1-53.3-125.9-33.1-87.4 132-67.1 249.2c30.1 174.3 42.5 363 99.7 344.3 22-7.2 29.7-111.7 34.6-142.6 5.6-35.6 12.6-71.6 44.3-71.8 38.1-.2 67.3 206 86.3 215.4 27.3 13.6 52.7-112 71.5-259.4 10.1-78.6 33.7-165.3 19.5-231.8z"/><path class="st3" d="M409.8 780.4c-42.2 0-66.3-40.4-78.3-91.4-12-51-19.2-147-32.3-207-13.2-60-83.7-71.4-112.9-55.6-53.1 28.9-71.1 84.9-51 196.5C155.9 737 247.2 851.3 395.2 882.3c112 23.4 242.4 8.6 316-40 98.7-65.2 141.2-147 154.6-202.9 18-75 1.9-181.3-63.6-202.5-65.6-21.2-117.6 22.9-129.4 84.3-9.8 51.3-28.5 204.1-66.2 242.7-37 38-58.4 6.6-70-31.3-11-36-20.4-159.3-50.6-157.8-38.8 2-22.2 205.6-76.2 205.6z"/><path class="st3" d="M127.3 417c7.9 8 27.2-23.7 77-25.3 49.3-1.7 73.3 31.3 80 22 6.7-9.3-27.7-38.7-78.5-38.7-57.5 0-88.3 32-78.5 42zm569.9 9.6c7.6 8.4 28.2-22.5 78-22 49.4.4 71.9 34.4 79 25.4 7.1-9-26-39.8-76.8-42-57.5-2.5-89.5 28.2-80.2 38.6z"/></g></svg>