<svg xmlns="http://www.w3.org/2000/svg" viewBox="0 0 1000 1000"><style>.st0{fill:#008c8c}.st1{fill:#017572}.st2{fill:#fff}</style><ellipse class="st0" cx="499.7" cy="503.5" rx="487.2" ry="487.5" id="Layer_2"/><path class="st1" d="M587.5 978.7l3-3 3-3 3-3 3-3 3-3 3-3 3-3 3-3 3-3 3-3 3-3 3-3 3-3 3-3 3-3 3-3 3-3 3-3 3-3 3-3 3-3 3-3 3-3 3-3 3-3 3-3 3-3 3-3 3-3 3-3 3-3 3-3 3-3 3-3 3-3 3-3 3-3 3-3 3-3 3-3 3-3 3-3 3-3 3-3 3-3 3-3 3-3 3-3 3-3 3-3 3-3 3-3 3-3 3-3 3-3 3-3 3-3 3-3 3-3 3-3 3-3 3-3 3-3c53.3-52.8 79.3-108.6 89.3-150.2 18-75 1.9-181.3-63.6-202.5-40.1-12.9-75.2-1.5-99 23.4l-3 3-3 3-3 3-3 3-3 3-3 3-3 3-3 3-3 3-3 3-3 3-3 3-3 3-3 3-3 3-3 3-3 3-3 3-3 3c-.5.5-1.1 1-1.6 1.6 1-7.5 2-15.4 3.1-24 10-78.5 33.6-165.2 19.5-231.8-19.9-93.7-50.7-108.4-90.5-107.9-25.4.3-36.7 37.7-72.4 37.7s-65.1-53.3-125.9-33.1c-10.9 3.6-20.7 10.2-29.4 19.2l-3 3-3 3-3 3-3 3-3 3-3 3-3 3-3 3-3 3-3 3-3 3-3 3-3 3-3 3-3 3-3 3-3 3-3 3-3 3-3 3-3 3-3 3-3 3-3 3-3 3-3 3-3 3-3 3-3 3-3 3-3 3-3 3-3 3-3 3-3 3-3 3-3 3-3 3-3 3-3 3-3 3-3 3-3 3-3 3-3 3-3 3-3 3-3 3-3 3-3 3-3 3-3 3-3 3-3 3-3 3-3 3-3 3-3 3-3 3-3 3-3 3-3 3-3 3-3 3-3 3-3 3-3 3-3 3-3 3-3 3-3 3-3 3-3 3-3 3-3 3-3 3-3 3-3 3-3 3-3 3-3 3-3 3-3 3-3 3-3 3-3 3-3 3-3 3-3 3-3 3-3 3-3 3-3 3-3 3-3 3-3 3-3 3-3 3-3 3-3 3-3 3-3 3-3 3-3 3-3 3-3 3-3 3-3 3-3 3-3 3-3 3-3 3-.3.3C19 779.1 234.6 991 499.7 991c28.1 0 55.6-2.4 82.4-7l2.4-2.4c1-.9 2-1.9 3-2.9z" id="Layer_4"/><g id="Layer_3"><path class="st2" d="M632.4 598c6.4-35.7 9.9-61.6 15.2-103 10-78.5 33.6-165.2 19.5-231.8-19.9-93.7-50.7-108.4-90.5-107.9-25.4.3-36.7 37.7-72.4 37.7s-65.1-53.3-125.9-33.1c-60.9 20.2-87.4 132-67.1 249.2 11.5 66.6 17.5 135.8 30.2 193.7 20.9 94.9 82.2 48.9 83.1 5.7 1.2-62.9-6.6-206.7 63.5-207.4 79.7-.8 75.5 107.4 75.2 205.9-.1 56.7 52.9 82.3 69.2-9z"/><path class="st2" d="M802.2 437c-65.6-21.2-117.6 22.9-129.4 84.3-9.8 51.3-3.4 114.1-41.1 152.7-12.5 12.9-34.8 13-43.8 24.2-12.8 15.9-7.5 110.8-5.8 130.5 1.7 19.7 0 35.8 25 47.8 29.2 13.9 63.6-7.3 104.2-34.1 98.7-65.2 141.2-147 154.6-202.9 17.9-75.1 1.8-181.4-63.7-202.5zM398.1 690.6C356 686.9 349 698 325 639c-19.7-48.5-12.6-97-25.8-157-13.2-60-83.7-71.4-112.9-55.6-53.1 28.9-71.1 84.9-51 196.5 20.6 114.1 86.8 225 235 255 30.3 6.1 39.8-19.4 39.8-52.4 0-32.9 5.7-133.3-12-134.9zM531.5 517c6.3 0 11.5-5.2 11.5-11.5s-5.2-11.5-11.5-11.5h-3.2v-25.9c0-13.8-11.3-25-25-25h-15.5c-13.8 0-25 11.3-25 25V494h-2.3c-6.3 0-11.5 5.2-11.5 11.5s5.2 11.5 11.5 11.5h2.3v15.3h-2.3c-6.3 0-11.5 5.2-11.5 11.5s5.2 11.5 11.5 11.5h2.3v15.3h-2.3c-6.3 0-11.5 5.2-11.5 11.5s5.2 11.5 11.5 11.5h2.3v15.3h-2.3c-6.3 0-11.5 5.2-11.5 11.5s5.2 11.5 11.5 11.5h2.3V647h-2.3c-6.3 0-11.5 5.2-11.5 11.5s5.2 11.5 11.5 11.5h2.3v15.3h-2.3c-6.3 0-11.5 5.2-11.5 11.5s5.2 11.5 11.5 11.5h2.3v15.3h-2.3c-6.3 0-11.5 5.2-11.5 11.5s5.2 11.5 11.5 11.5h2.3v15.3h-2.3c-6.3 0-11.5 5.2-11.5 11.5s5.2 11.5 11.5 11.5h2.3V800h-2.3c-6.3 0-11.5 5.2-11.5 11.5s5.2 11.5 11.5 11.5h2.3v15.3h-2.3c-6.3 0-11.5 5.2-11.5 11.5s5.2 11.5 11.5 11.5h2.3v15.3h-2.3c-6.3 0-11.5 5.2-11.5 11.5s5.2 11.5 11.5 11.5h4c3.6 9.4 12.7 16.1 23.3 16.1h15.5c10.6 0 19.7-6.7 23.3-16.1h4.8c6.3 0 11.5-5.2 11.5-11.5s-5.2-11.5-11.5-11.5h-3.2v-15.3h3.2c6.3 0 11.5-5.2 11.5-11.5s-5.2-11.5-11.5-11.5h-3.2V823h3.2c6.3 0 11.5-5.2 11.5-11.5s-5.2-11.5-11.5-11.5h-3.2v-15.3h3.2c6.3 0 11.5-5.2 11.5-11.5s-5.2-11.5-11.5-11.5h-3.2v-15.3h3.2c6.3 0 11.5-5.2 11.5-11.5s-5.2-11.5-11.5-11.5h-3.2v-15.3h3.2c6.3 0 11.5-5.2 11.5-11.5s-5.2-11.5-11.5-11.5h-3.2V670h3.2c6.3 0 11.5-5.2 11.5-11.5s-5.2-11.5-11.5-11.5h-3.2v-15.3h3.2c6.3 0 11.5-5.2 11.5-11.5s-5.2-11.5-11.5-11.5h-3.2v-15.3h3.2c6.3 0 11.5-5.2 11.5-11.5s-5.2-11.5-11.5-11.5h-3.2v-15.3h3.2c6.3 0 11.5-5.2 11.5-11.5s-5.2-11.5-11.5-11.5h-3.2V517h3.3z"/></g></svg>