<svg xmlns="http://www.w3.org/2000/svg" viewBox="0 0 1000 1000"><style>.st0{fill:#f47a0b}.st1{fill:#d86109}.st2{fill:#fff}</style><ellipse class="st0" cx="499.7" cy="503.5" rx="487.2" ry="487.5" id="Layer_2"/><path class="st1" d="M489.8 988.6c1-.9 2-1.9 3-3 1-.9 2-1.9 3-3 1-.9 2-1.9 3-3 1-.9 2-1.9 3-3 1-.9 2-1.9 3-3 1-.9 2-1.9 3-3 1-.9 2-1.9 3-3 1-.9 2-1.9 3-3 1-.9 2-1.9 3-3 1-.9 2-1.9 3-3 1-.9 2-1.9 3-3 1-.9 2-1.9 3-3 1-.9 2-1.9 3-3 1-.9 2-1.9 3-3 1-.9 2-1.9 3-3 1-.9 2-1.9 3-3 1-.9 2-1.9 3-3 1-.9 2-1.9 3-3 1-.9 2-1.9 3-3 1-.9 2-1.9 3-3 1-.9 2-1.9 3-3 1-.9 2-1.9 3-3 1-.9 2-1.9 3-3 1-.9 2-1.9 3-3 1-.9 2-1.9 3-3 1-.9 2-1.9 3-3 1-.9 2-1.9 3-3 1-.9 2-1.9 3-3 1-.9 2-1.9 3-3 1-.9 2-1.9 3-3 1-.9 2-1.9 3-3 1-.9 2-1.9 3-3 1-.9 2-1.9 3-3 1-.9 2-1.9 3-3 1-.9 2-1.9 3-3 1-.9 2-1.9 3-3 1-.9 2-1.9 3-3 1-.9 2-1.9 3-3 1-.9 2-1.9 3-3 1-.9 2-1.9 3-3 1-.9 2-1.9 3-3 1-.9 2-1.9 3-3 1-.9 2-1.9 3-3 1-.9 2-1.9 3-3 1-.9 2-1.9 3-3 1-.9 2-1.9 3-3 1-.9 2-1.9 3-3 1-.9 2-1.9 3-3 1-.9 2-1.9 3-3 1-.9 2-1.9 3-3 1-.9 2-1.9 3-3 1-.9 2-1.9 3-3 30.5-27.8 58.4-134.1 80.2-254.9 14.2-79 47.7-166.2 27.7-233.2-28.2-94.3-71.9-109.1-128.3-108.5-35.9.3-52.1 37.9-102.6 37.9-50.6 0-92.2-53.6-178.5-33.3-22.2 5.2-41.2 16.6-56.7 32.6l-3 3-3 3-3 3-3 3-3 3-3 3-3 3-3 3-3 3-3 3-3 3-3 3-3 3-3 3-3 3-3 3-3 3-3 3-3 3-3 3-3 3-3 3-3 3-3 3-3 3-3 3-3 3-3 3-3 3-3 3-3 3-3 3-3 3-3 3-3 3-3 3-3 3-3 3-3 3-3 3-3 3-3 3-3 3-3 3-3 3-3 3-3 3-3 3-3 3-3 3-3 3-3 3-3 3-3 3-3 3-3 3-3 3-3 3-3 3-3 3-3 3-3 3-3 3-3 3-3 3-3 3-3 3-3 3-3 3-3 3-3 3-3 3-3 3-3 3-3 3-3 3-3 3-3 3-3 3-3 3-3 3-3 3-3 3-3 3-3 3-3 3-3 3-3 3-3 3-3 3-3 3-.2.2c21.4 245.2 224.1 438.4 473.2 444.5.7-.8 1.4-1.5 2.2-2.3z" id="Layer_5"/><path class="st2" d="M753.7 344.6c-28.2-94.3-71.9-109.1-128.3-108.5-35.9.3-52.1 37.9-102.6 37.9-50.6 0-92.2-53.6-178.5-33.3-86.3 20.2-124 132.7-95.3 250.6 42.7 175.3 60.3 365.1 141.3 346.3 31.2-7.2 42.2-112.4 49.1-143.5 8-35.8 17.8-72 62.8-72.2 54.1-.2 95.4 207.2 122.3 216.7C663.3 852.3 699.3 726 726 577.7c14.3-79 47.7-166.2 27.7-233.1zm-220.3 15.1c7 0 12.7 10.7 12.7 24s-5.7 24-12.7 24-12.7-10.7-12.7-24 5.7-24 12.7-24zm-66.8 0c7 0 12.7 10.7 12.7 24s-5.7 24-12.7 24-12.7-10.7-12.7-24c.1-13.3 5.7-24 12.7-24zm169.2 166c-35.3 18-71.8 27.4-108.6 28h-4.1c-29.6 0-59.4-5.7-88.6-16.8-40.9-15.7-69.2-37.7-80-46.9-2.7-2.3-2.9-6.4-.4-8.9l1.2-1.3c2.2-2.3 5.9-2.5 8.4-.4 10.1 8.6 37.6 29.9 76.3 44.7 63.9 24.3 127.6 20.7 189.4-10.8 3-1.5 6.6-.4 8.2 2.6l.8 1.5c1.7 2.9.5 6.7-2.6 8.3z" id="Layer_3"/></svg>