<svg xmlns="http://www.w3.org/2000/svg" viewBox="0 0 1000 1000"><style>.st0{fill:#f47a0b}.st1{fill:#fff}</style><circle class="st0" cx="500" cy="500" r="438.1" id="Layer_2"/><path class="st1" d="M716.9 340.4C684.6 259 638 252.5 607 256.2c-31 3.7-45.2 33.8-89.2 33.8s-80.2-47.8-155.1-29.7-95.7 116.3-82.8 223.6c12.9 107.3 52.4 325.8 122.8 309 27.1-6.5 28.4-103.4 42.7-128 14.2-24.6 53-42.7 44-65.9-9-23.3-21.6-53.7-66.1-99.5-18.1-18.6-44.6-37.6-27.8-52.1 13.8-11.9 25.7.5 59 33.9 86.8 87.3 142.2 315.5 166.8 311.6 35.9-5.7 127.9-371 95.6-452.5zm-324.5 62.7c-29 0-52.5-23.5-52.5-52.5s23.5-52.5 52.5-52.5 52.5 23.5 52.5 52.5c0 28.9-23.5 52.5-52.5 52.5zm253 219.2c-9.2-58-38.1-146.5-65.6-207.5s-.1-117.6 56.4-99.2c70.2 22.9 9.2 306.7 9.2 306.7z" id="Layer_1"/></svg>