<svg xmlns="http://www.w3.org/2000/svg" viewBox="0 0 1000 1000"><style>.st0{fill:#008c8c}.st1{fill:#017571}.st2{fill:#fff}</style><ellipse class="st0" cx="499.7" cy="503.5" rx="487.2" ry="487.5" id="Layer_2"/><path class="st1" d="M491 987.5c1.1-1 2.1-2 3-3 1.1-1 2.1-2 3-3 1.1-1 2.1-2 3-3 1.1-1 2.1-2 3-3 1.1-1 2.1-2 3-3 1.1-1 2.1-2 3-3 1.1-1 2.1-2 3-3 1.1-1 2.1-2 3-3 1.1-1 2.1-2 3-3 1.1-1 2.1-2 3-3 1.1-1 2.1-2 3-3 1.1-1 2.1-2 3-3 1.1-1 2.1-2 3-3 1.1-1 2.1-2 3-3 1.1-1 2.1-2 3-3 1.1-1 2.1-2 3-3 1.1-1 2.1-2 3-3 1.1-1 2.1-2 3-3 1.1-1 2.1-2 3-3 1.1-1 2.1-2 3-3 1.1-1 2.1-2 3-3 1.1-1 2.1-2 3-3 1.1-1 2.1-2 3-3 1.1-1 2.1-2 3-3 1.1-1 2.1-2 3-3 1.1-1 2.1-2 3-3 1.1-1 2.1-2 3-3 1.1-1 2.1-2 3-3 1.1-1 2.1-2 3-3 1.1-1 2.1-2 3-3 1.1-1 2.1-2 3-3 1.1-1 2.1-2 3-3 1.1-1 2.1-2 3-3 1.1-1 2.1-2 3-3 1.1-1 2.1-2 3-3 1.1-1 2.1-2 3-3 1.1-1 2.1-2 3-3 1.1-1 2.1-2 3-3 1.1-1 2.1-2 3-3 1.1-1 2.1-2 3-3 1.1-1 2.1-2 3-3 1.1-1 2.1-2 3-3 1.1-1 2.1-2 3-3 1.1-1 2.1-2 3-3 1.1-1 2.1-2 3-3 1.1-1 2.1-2 3-3 1.1-1 2.1-2 3-3 1.1-1 2.1-2 3-3 1.1-1 2.1-2 3-3 1.1-1 2.1-2 3-3 1.1-1 2.1-2 3-3 1.1-1 2.1-2 3-3 1.1-1 2.1-2 3-3 1.1-1 2.1-2 3-3 1.1-1 2.1-2 3-3 1.1-1 2.1-2 3-3 1.1-1 2.1-2 3-3 1.1-1 2.1-2 3-3 1.1-1 2.1-2 3-3 1.1-1 2.1-2 3-3 1.1-1 2.1-2 3-3 1.1-1 2.1-2 3-3 1.1-1 2.1-2 3-3 1.1-1 2.1-2 3-3 1.1-1 2.1-2 3-3 1.1-1 2.1-2 3-3 1.1-1 2.1-2 3-3 1.1-1 2.1-2 3-3 1.1-1 2.1-2 3-3 1.1-1 2.1-2 3-3 1.1-1 2.1-2 3-3 1.1-1 2.1-2 3-3 1.1-1 2.1-2 3-3 1.1-1 2.1-2 3-3 1.1-1 2.1-2 3-3 1.1-1 2.1-2 3-3 1.1-1 2.1-2 3-3 1.1-1 2.1-2 3-3 1.1-1 2.1-2 3-3 1.1-1 2.1-2 3-3 1.1-1 2.1-2 3-3 1.1-1 2.1-2 3-3 1.1-1 2.1-2 3-3 1.1-1 2.1-2 3-3 1.1-1 2.1-2 3-3 1.1-1 2.1-2 3-3 1.1-1 2.1-2 3-3 1.1-1 2.1-2 3-3 1.1-1 2.1-2 3-3 1.1-1 2.1-2 3-3 1.1-1 2.1-2 3-3 1.1-1 2.1-2 3-3 1.1-1 2.1-2 3-3 1.1-1 2.1-2 3-3 1.1-1 2.1-2 3-3 1.1-1 2.1-2 3-3 1.1-1 2.1-2 3-3 1.1-1 2.1-2 3-3 1.1-1 2.1-2 3-3 1.1-1 2.1-2 3-3 1.1-1 2.1-2 3-3 1.1-1 2.1-2 3-3 1.1-1 2.1-2 3-3 1.1-1 2.1-2 3-3 1.1-1 2.1-2 3-3 1.1-1 2.1-2 3-3 1.1-1 2.1-2 3-3 9.7-9.1 15-18.8 15-28.9v-42.8c-.9 1.7-1.9 3.3-3 5v-2c-.9 1.7-1.9 3.3-3 5v-2c-.9 1.7-1.9 3.3-3 5v-2c-.9 1.7-1.9 3.3-3 5v-2c-.9 1.7-1.9 3.3-3 5v-2c-.9 1.7-1.9 3.3-3 5v-2c-.8 1.5-1.7 3-2.7 4.5-.1.1-.2.1-.3.2v-1.7c-.5 1-1.1 2-1.7 3-.4.3-.9.6-1.3.9v-.9c-.2.5-.5.9-.8 1.4-7.8 5.3-17 10.3-27.6 15 .5-.5.9-.9 1.3-1.4 1.1-1 2-2 3-3 1.1-1 2-2 3-3 1.1-1 2-2 3-3 1.1-1 2-2 3-3 1.1-1 2-2 3-3 1.1-1 2-2 3-3 1.1-1 2-2 3-3 1.1-1 2-2 3-3 1.1-1 2-2 3-3 1.1-1 2-2 3-3 1.1-1 2-2 3-3 1.1-1 2-2 3-3 9.7-9.1 15-18.9 15-29V526c-.9 1.7-1.9 3.3-3 5v-2c-.9 1.7-1.9 3.3-3 5v-2c-.9 1.7-1.9 3.3-3 5v-2c-.9 1.7-1.9 3.3-3 5v-2c-.9 1.7-1.9 3.3-3 5v-2c-.9 1.7-1.9 3.3-3 5v-2c-.8 1.5-1.7 3-2.7 4.5-.1.1-.2.1-.3.2V547c-.5 1-1.1 2-1.7 3-.4.3-.9.6-1.3.9v-.9c-.2.5-.5.9-.8 1.4-7.8 5.3-17 10.3-27.6 15 .5-.5 1-1 1.5-1.6 1.1-1 2.1-2 3-3 1.1-1 2.1-2 3-3 1.1-1 2.1-2 3-3 1.1-1 2.1-2 3-3 1.1-1 2.1-2 3-3 1.1-1 2.1-2 3-3 1.1-1 2.1-2 3-3 1.1-1 2.1-2 3-3 1.1-1 2.1-2 3-3 1.1-1 2.1-2 3-3 1.1-1 2.1-2 3-3 1.1-1 2.1-2 3-3 9.6-9.1 14.8-18.8 14.8-28.8v-42.8c-.9 1.7-1.9 3.3-3 5v-2c-.9 1.7-1.9 3.3-3 5v-2c-.9 1.7-1.9 3.3-3 5v-2c-.9 1.7-1.9 3.3-3 5v-2c-.9 1.7-1.9 3.3-3 5v-2c-.9 1.7-1.9 3.3-3 5v-2c-.8 1.5-1.7 3-2.7 4.5-.1.1-.2.1-.3.2v-1.7c-.5 1-1.1 2-1.7 3-.4.3-.9.6-1.3.9v-.9c-.2.5-.5.9-.8 1.4-7.8 5.3-17 10.3-27.6 15l1.5-1.5c1.1-1 2.1-2 3-3 1.1-1 2.1-2 3-3 1.1-1 2.1-2 3-3 1.1-1 2.1-2 3-3 1.1-1 2.1-2 3-3 1.1-1 2.1-2 3-3 1.1-1 2.1-2 3-3 1.1-1 2.1-2 3-3 1.1-1 2.1-2 3-3 1.1-1 2.1-2 3-3 1.1-1 2.1-2 3-3 1.1-1 2.1-2 3-3 9.6-9.1 14.9-18.8 14.9-28.8v-42.8c-.9 1.7-1.9 3.3-3 5v-2c-.9 1.7-1.9 3.3-3 5v-2c-.9 1.7-1.9 3.3-3 5v-2c-.9 1.7-1.9 3.3-3 5v-2c-.9 1.7-1.9 3.3-3 5v-2c-.9 1.7-1.9 3.3-3 5v-2c-.8 1.5-1.7 3-2.7 4.5-.1.1-.2.1-.3.2v-1.7c-.5 1-1.1 2-1.7 3-.4.3-.9.6-1.3.9v-.9c-.2.5-.5.9-.8 1.4-8.7 5.9-19.1 11.4-31.3 16.6.6-.6 1.2-1.2 1.8-1.9 1.1-1 2.1-2 3-3 1.1-1 2.1-2 3-3 1.1-1 2.1-2 3-3 1.1-1 2.1-2 3-3 1.1-1 2.1-2 3-3 1.1-1 2.1-2 3-3 1.1-1 2.1-2 3-3 1.1-1 2.1-2 3-3 1.1-1 2.1-2 3-3 1.1-1 2.1-2 3-3 1.1-1 2.1-2 3-3 8.6-8.1 13.1-16.4 13.1-24.6 0-16.8-19-34.1-53.3-48.9l-2 3.5c-.3-.2-.7-.3-1-.5l-2 3.5c-.3-.2-.7-.3-1-.5l-2 3.5c-.3-.2-.7-.3-1-.5l-2 3.5c-.3-.2-.7-.3-1-.5l-2 3.5c-.3-.2-.7-.3-1-.5l-2 3.5c-.3-.2-.7-.3-1-.5l-2 3.5c-.3-.2-.7-.3-1-.5l-2 3.5c-.3-.2-.7-.3-1-.5l-2 3.5c-.3-.2-.7-.3-1-.5l-2 3.5c-.3-.2-.7-.3-1-.5l-2 3.5c-.3-.2-.7-.3-1-.5l-2 3.5c-.3-.2-.7-.3-1-.5l-2 3.5c-.3-.2-.7-.3-1-.5l-2 3.5c-.3-.2-.7-.3-1-.5l-2 3.5c-.1 0-.1-.1-.2-.1l31.5-55.3-3.3 3.5.3-.5-3.3 3.5.3-.5-3.3 3.5.3-.5-3.3 3.5.3-.5-3.3 3.5.3-.5-3.3 3.5.3-.5-3.3 3.5.3-.5-3.3 3.5.3-.5-3.3 3.5.3-.5-3.3 3.5.3-.5-3.3 3.5.3-.5-3.3 3.5.3-.5-3.3 3.5.3-.5-3.3 3.5.3-.5-3.3 3.5.3-.5-3.3 3.5.3-.5-3.3 3.5.3-.5-3.3 3.5.3-.5-3.3 3.5.3-.5-3.3 3.5.3-.5-3.3 3.5.3-.5-3.3 3.5.3-.5-3.3 3.5.3-.5-3.3 3.5.3-.5-3.3 3.5.3-.5-3.3 3.5.3-.5-3.3 3.5.3-.5-3.3 3.5.3-.5-3.3 3.5.3-.5-3.3 3.5.3-.5-3.3 3.5.3-.5-3.3 3.5.3-.5-3.3 3.5.3-.5-3.3 3.5.3-.5-3.3 3.5.3-.5-3.3 3.5.3-.5-3.3 3.5.3-.5-3.3 3.5.3-.5-3.3 3.5.3-.5-3.3 3.5.3-.5-3.3 3.5.3-.5-3.3 3.5.3-.5-3.3 3.5.3-.5-3.3 3.5.3-.5-3.3 3.5.3-.5-3.3 3.5.3-.5-3.3 3.5.3-.5-3.3 3.5.3-.5-3.3 3.5.3-.5-3.3 3.5.3-.5-3.3 3.5.3-.5-3.3 3.5.3-.5-3.3 3.5.3-.5-3.3 3.5.3-.5-3.3 3.5.3-.5-3.3 3.5.3-.5-3.3 3.5.3-.5-3.3 3.5.3-.5-3.3 3.5.3-.5-3.3 3.5.3-.5-3.3 3.5.3-.5-3.3 3.5.3-.5-3.3 3.5.3-.5-3.3 3.5.3-.5-3.3 3.5.3-.5-3.3 3.5.3-.5-3.3 3.5.3-.5-3.3 3.5.3-.5-3.3 3.5.3-.5-3.3 3.5.3-.5-3.3 3.5.3-.5-3.3 3.5.3-.5-3.3 3.5.3-.5-3.3 3.5.3-.5-3.3 3.5.3-.5-3.3 3.5.3-.5-3.3 3.5.3-.5-3.3 3.5.3-.5-3.3 3.5.3-.5-3.3 3.5.3-.5-3.3 3.5.3-.5-3.3 3.5.3-.5-3.3 3.5.3-.5-3.3 3.5.3-.5-3.3 3.5.3-.5-3.3 3.5.3-.5-3.3 3.5.3-.5-3.3 3.5.3-.5-3.3 3.5.3-.5-3.3 3.5.3-.5-3.3 3.5.3-.5-3.3 3.5.3-.5-3.3 3.5.3-.5-3.3 3.5.3-.5-3.3 3.5.3-.5-3.3 3.5.3-.5-3.3 3.5.3-.5-3.3 3.5.3-.5-3.3 3.5.3-.5-3.3 3.5.3-.5-3.3 3.5.3-.5-3.3 3.5.3-.5-3.3 3.5.3-.5-3.3 3.5.3-.5-3.3 3.5.3-.5-3.3 3.5.3-.5-2.8 2.9h-3.3c.8-.7 1.7-1.4 2.5-2.2h-.5c1.2-.9 2.4-1.9 3.5-3h-.5c1.2-.9 2.4-1.9 3.5-3h-.5c1.2-.9 2.4-1.9 3.5-3h-.5c1.2-.9 2.4-1.9 3.5-3h-.5c1.2-.9 2.4-1.9 3.5-3h-.5c1.2-.9 2.4-1.9 3.5-3h-.5c1.2-.9 2.4-1.9 3.5-3h-.5c1.2-.9 2.4-1.9 3.5-3-.3 0-.6 0-.9-.1l1-1h.2l2.8-3h.2l2.8-3h.2l2.8-3h.2l2.8-3h.2l50.7-54.2h-1l1.7-1.8h.2l2.8-3h.2l2.8-3h.2l2.8-3h.2l2.8-3h.2l53.8-57.5c-.3 0-.7 0-1 .1l.2-.2h.2l2.8-3h.2l2.8-3h.2l2.8-3h.2l2.8-3h.2l136.6-146C679.1 293.7 603 282.4 512 282.4c-152.7 0-263.7 31.7-296.7 67-1.1 1-2.1 2-3 3-1.1 1-2.1 2-3 3-1.1 1-2.1 2-3 3-1.1 1-2.1 2-3 3-1.1 1-2.1 2-3 3-1.1 1-2.1 2-3 3-1.1 1-2.1 2-3 3-1.1 1-2.1 2-3 3-1.1 1-2.1 2-3 3-1.1 1-2.1 2-3 3-1.1 1-2.1 2-3 3-1.1 1-2.1 2-3 3-1.1 1-2.1 2-3 3-1.1 1-2.1 2-3 3-1.1 1-2.1 2-3 3-1.1 1-2.1 2-3 3-1.1 1-2.1 2-3 3-1.1 1-2.1 2-3 3-1.1 1-2.1 2-3 3-1.1 1-2.1 2-3 3-1.1 1-2.1 2-3 3-1.1 1-2.1 2-3 3-1.1 1-2.1 2-3 3-1.1 1-2.1 2-3 3-1.1 1-2.1 2-3 3-1.1 1-2.1 2-3 3-1.1 1-2.1 2-3 3-1.1 1-2.1 2-3 3-1.1 1-2.1 2-3 3-1.1 1-2.1 2-3 3-1.1 1-2.1 2-3 3-1.1 1-2.1 2-3 3-1.1 1-2.1 2-3 3-1.1 1-2.1 2-3 3-1.1 1-2.1 2-3 3-1.1 1-2.1 2-3 3-1.1 1-2.1 2-3 3-1.1 1-2.1 2-3 3-1.1 1-2.1 2-3 3-1.1 1-2.1 2-3 3-1.1 1-2.1 2-3 3-1.1 1-2.1 2-3 3-1.1 1-2.1 2-3 3-1.1 1-2.1 2-3 3-1.1 1-2.1 2-3 3-1.1 1-2.1 2-3 3-1.1 1-2.1 2-3 3-1.1 1-2.1 2-3 3-1.1 1-2.1 2-3 3-1.1 1-2.1 2-3 3-1.1 1-2.1 2-3 3-1.1 1-2.1 2-3 3-1.1 1-2.1 2-3 3-1.1 1-2.1 2-3 3-1.1 1-2.1 2-3 3-1.1 1-2.1 2-3 3-1.1 1-2.1 2-3 3-1.1 1-2.1 2-3 3-1.1 1-2.1 2-3 3-1.1 1-2.1 2-3 3-1.1 1-2.1 2-3 3-1.1 1-2.1 2-3 3-1.1 1-2.1 2-3 3-1.1 1-2.1 2-3 3-1.1 1-2.1 2-3 3-1.1 1-2.1 2-3 3-.9.8-1.7 1.7-2.5 2.5 23 243.5 225.1 434.9 473 440.8l.3-.3c1-.9 2-1.9 2.9-2.9z" id="Layer_6"/><g id="Layer_4"><path class="st2" d="M512 282.4c-183.6 0-306.9 45.8-306.9 88.6s123.3 88.6 306.9 88.6c29.8 0 57.9-1.2 84.3-3.4l136.6-146C679.1 293.7 603 282.4 512 282.4zm306.9 88.7c0-16.8-19-34.1-53.3-48.9L698 441.1c76-17.3 120.9-44.2 120.9-70z"/><path class="st2" d="M512 526.1c6.4 0 12.8-.1 19.2-.2l53.8-57.5c-23.6 1.7-48.1 2.5-72.9 2.5-84.5 0-164-9.9-223.9-27.9-29.4-8.8-52.5-19.2-68.7-30.7-10.6-7.5-18.1-15.5-22.4-23.8v42.8c0 4.7 1.1 9.2 3.3 13.7l48.5 38.3c56.2 25.8 153.1 42.8 263.1 42.8zm315-94.8v-42.8c-4.3 8.3-11.8 16.2-22.4 23.8-16.2 11.6-39.4 21.9-68.7 30.7-14.1 4.2-29.3 8-45.4 11.3l-34.8 61.3C757.4 499.9 827 468.1 827 431.3zm-538.9 80.5c-1.9-.6-3.8-1.1-5.6-1.7l95.9 75.9c27.7 3.9 57.7 6.6 89.2 8l50.7-54.2H512c-84.5-.1-164-10-223.9-28z"/><path class="st2" d="M827 500.1v-42.8c-4.3 8.3-11.8 16.2-22.4 23.8-16.2 11.6-39.4 21.9-68.7 30.7-26.2 7.9-56.2 14.2-88.7 18.9l-33.6 59.2C737.7 577.1 827 541.7 827 500.1zM408.3 609.5c14 11.1 34.4 9.9 47.1-2.5-19.3-1-38.1-2.6-56.2-4.7l9.1 7.2zM197 568.8c0 19.6 19.8 37.9 53.8 53l-53.8-82v29z"/><path class="st2" d="M827 568.8V526c-4.3 8.3-11.8 16.2-22.4 23.8-16.2 11.6-39.4 21.9-68.7 30.7-37.1 11.2-81.8 19.2-130.6 23.7l-32.7 57.6c145-8.4 254.4-46.9 254.4-93zm-607.6 49.8c-10.6-7.5-18.1-15.5-22.4-23.8v42.8c0 29 43.3 55 111.5 72.3l-45.2-69c-17.8-6.8-32.6-14.2-43.9-22.3z"/><path class="st2" d="M827 637.6v-42.8c-4.3 8.3-11.8 16.2-22.4 23.8-16.2 11.6-39.4 21.9-68.7 30.7-47.3 14.2-106.8 23.4-171.3 26.6l-32 56.2C697 729 827 687.9 827 637.6zm-74.1-325.4L468 616.8c-8.9 9.5-20.9 15.2-33.8 16.2-12.9 1-25.7-2.9-35.9-11L151.9 427.2c-2.4-1.9-4.4-.7-5.3.2-1 .9-2.3 2.7-.7 5.3l272.5 415.9c3.4 5.2 9.1 8.2 15.3 8 6.2-.2 11.7-3.5 14.8-8.9l304.4-535.5z"/></g></svg>