<svg xmlns="http://www.w3.org/2000/svg" viewBox="0 0 1000 1000"><style>.st0{fill:#008c8c}.st1{fill:#017572}.st2{fill:#fff}</style><ellipse class="st0" cx="499.7" cy="503.5" rx="487.2" ry="487.5" id="Layer_2"/><path class="st1" d="M608.4 976.6c1.1-.9 2.1-1.9 3-3 1.1-.9 2.1-1.9 3-3 1.1-.9 2.1-1.9 3-3 1.1-.9 2.1-1.9 3-3 1.1-.9 2.1-1.9 3-3 1.1-.9 2.1-1.9 3-3 1.1-.9 2.1-1.9 3-3 1.1-.9 2.1-1.9 3-3 1.1-.9 2.1-1.9 3-3 1.1-.9 2.1-1.9 3-3 1.1-.9 2.1-1.9 3-3 1.1-.9 2.1-1.9 3-3 1.1-.9 2.1-1.9 3-3 1.1-.9 2.1-1.9 3-3 1.1-.9 2.1-1.9 3-3 1.1-.9 2.1-1.9 3-3 1.1-.9 2.1-1.9 3-3 1.1-.9 2.1-1.9 3-3 1.1-.9 2.1-1.9 3-3 1.1-.9 2.1-1.9 3-3 1.1-.9 2.1-1.9 3-3 1.1-.9 2.1-1.9 3-3 1.1-.9 2.1-1.9 3-3 1.1-.9 2.1-1.9 3-3 1.1-.9 2.1-1.9 3-3 1.1-.9 2.1-1.9 3-3 1.1-.9 2.1-1.9 3-3 1.1-.9 2.1-1.9 3-3 1.1-.9 2.1-1.9 3-3 1.1-.9 2.1-1.9 3-3 1.1-.9 2.1-1.9 3-3 1.1-.9 2.1-1.9 3-3 1.1-.9 2.1-1.9 3-3 1.1-.9 2.1-1.9 3-3 1.1-.9 2.1-1.9 3-3 1.1-.9 2.1-1.9 3-3 1.1-.9 2.1-1.9 3-3 1.1-.9 2.1-1.9 3-3 1.1-.9 2.1-1.9 3-3 1.1-.9 2.1-1.9 3-3 1.1-.9 2.1-1.9 3-3 1.1-.9 2.1-1.9 3-3 1.1-.9 2.1-1.9 3-3 1.1-.9 2.1-1.9 3-3 1.1-.9 2.1-1.9 3-3 1.1-.9 2.1-1.9 3-3 1.1-.9 2.1-1.9 3-3 1.1-.9 2.1-1.9 3-3 1.1-.9 2.1-1.9 3-3 1.1-.9 2.1-1.9 3-3 1.1-.9 2.1-1.9 3-3 1.1-.9 2.1-1.9 3-3 1.1-.9 2.1-1.9 3-3 1.1-.9 2.1-1.9 3-3 1.1-.9 2.1-1.9 3-3 1.1-.9 2.1-1.9 3-3 1.1-.9 2.1-1.9 3-3 1.1-.9 2.1-1.9 3-3 1.1-.9 2.1-1.9 3-3 1.1-.9 2.1-1.9 3-3 1.1-.9 2.1-1.9 3-3 1.1-.9 2.1-1.9 3-3 1.1-.9 2.1-1.9 3-3 1.1-.9 2.1-1.9 3-3 1.1-.9 2.1-1.9 3-3 1.1-.9 2.1-1.9 3-3 1.1-.9 2.1-1.9 3-3 1.1-.9 2.1-1.9 3-3 1.1-.9 2.1-1.9 3-3 1.1-.9 2.1-1.9 3-3 3.6-3 6.3-7.1 7.7-11.9 7.7-27.4 20.9-84.1 20.9-146.9 0-28.8-2.5-57.6-7.6-86-4.4-24.5-21.2-44.6-43.7-53.5l-2.7 3.1c-.1 0-.2-.1-.3-.1l-2.7 3.1c-.1 0-.2-.1-.3-.1l-2.7 3.1c-.1 0-.2-.1-.3-.1l-2.7 3.1c-.1 0-.2-.1-.3-.1l-2.7 3.1c-.1 0-.2-.1-.3-.1l-2.7 3.1c-.1 0-.2-.1-.3-.1l-2.7 3.1c-.1 0-.2-.1-.3-.1l-2.7 3.1c-.1 0-.2-.1-.3-.1l-2.7 3.1c-.1 0-.2-.1-.3-.1l-2.7 3.1c-.1 0-.2-.1-.3-.1l-2.7 3.1c-.1 0-.2-.1-.3-.1l-2.7 3.1c-.1 0-.2-.1-.3-.1l-2.7 3.1c-.1 0-.2-.1-.3-.1l-2.7 3.1c-.1 0-.2-.1-.3-.1l-2.7 3.1c-.1 0-.2-.1-.3-.1l-2.7 3.1c-.1 0-.2-.1-.3-.1l-2.7 3.1c-.1 0-.2-.1-.3-.1l-2.7 3.1c-.1 0-.2-.1-.3-.1l-2.7 3.1c-.1 0-.2-.1-.3-.1l-2.7 3.1c-.1 0-.2-.1-.3-.1l-2.7 3.1c-.1 0-.2-.1-.3-.1l-2.7 3.1c-.1 0-.2-.1-.3-.1l-2.7 3.1c-.1 0-.2-.1-.3-.1l-2.7 3.1c-.1 0-.2-.1-.3-.1l-2.7 3.1c-.1 0-.2-.1-.3-.1l-2.7 3.1c-.1 0-.2-.1-.3-.1l-2.7 3.1c-.1 0-.2-.1-.3-.1l-2.7 3.1c-.1 0-.2-.1-.3-.1l-2.7 3.1c-.1 0-.2-.1-.3-.1l-2.7 3.1c-.1 0-.2-.1-.3-.1l-2.7 3.1c-.1 0-.2-.1-.3-.1l-2.7 3.1c-.1 0-.2-.1-.3-.1l-2.7 3.1c-.1 0-.2-.1-.3-.1l-2.7 3.1c-.1 0-.2-.1-.3-.1l-2.7 3.1c-.1 0-.2-.1-.3-.1l-2.7 3.1c-.1 0-.2-.1-.3-.1l-2.7 3.1c-.1 0-.2-.1-.3-.1l-2.7 3.1c-.1 0-.2-.1-.3-.1l-2.7 3.1c-.1 0-.2-.1-.3-.1l-2.7 3.1c-.1 0-.2-.1-.3-.1l-2.7 3.1c-.1 0-.2-.1-.3-.1l-2.7 3.1c-.1 0-.2-.1-.3-.1l-2.7 3.1c-.1 0-.2-.1-.3-.1l-1 1.1c-.2-4-.5-7.9-.8-11.8l.6-.7c.1 0 .2.1.2.1l2.8-3.1c.1 0 .2.1.2.1l2.8-3.1c.1 0 .2.1.2.1l2.8-3.1c.1 0 .2.1.2.1l2.8-3.1c.1 0 .2.1.2.1l2.8-3.1c.1 0 .2.1.2.1l2.8-3.1c.1 0 .2.1.2.1l2.8-3.1c.1 0 .2.1.2.1l2.8-3.1c.1 0 .2.1.2.1l2.8-3.1c.1 0 .2.1.2.1l2.8-3.1c.1 0 .2.1.2.1l2.8-3.1c.1 0 .2.1.2.1l2.8-3.1c.1 0 .2.1.2.1l2.8-3.1c.1 0 .2.1.2.1l73.6-83.2-38.5-6.1c-7.4-1.2-13-7.3-13.6-14.7l-.4-4.6c-.3-3.6.3-7.2 1.6-10.5l.9-.9 3-3 3-3 3-3 3-3 3-3 3-3 3-3c30.6-29.5 48.2-76.7 48.2-116.6 0-63.3-37.4-122.2-114.6-122.2-32.4 0-58.3 11.1-77.1 28.8 0 .1.1.1.1.2-1.1.9-2.1 1.8-3.1 2.8 0 .1.1.1.1.2-1.1.9-2.1 1.8-3.1 2.8 0 .1.1.1.1.2-1.1.9-2.1 1.8-3.1 2.8 0 .1.1.1.1.2-1.1.9-2.1 1.8-3.1 2.8 0 .1.1.1.1.2h-.1c-18.3-30.9-50.5-52.9-98.3-52.9-36 0-63.2 13.1-82.3 32.9l-3 3-3 3-3 3-3 3-3 3-3 3-3 3-3 3-3 3-3 3-3 3-3 3-3 3-3 3c-.6.6-1.3 1.2-1.9 1.8 4.6-14.8 11.3-28.6 19.9-40.7-18.2-15-42.4-24.1-72.9-24.1-34.7 0-61.9 12.7-81 32.6l-3 3-3 3-3 3-3 3-3 3-3 3-3 3-3 3-3 3-3 3-3 3-3 3-3 3-3 3-3 3-3 3-3 3-3 3-3 3-3 3-3 3-3 3-3 3-3 3-3 3-3 3-3 3-3 3-3 3-3 3-3 3-3 3-3 3-3 3-3 3-3 3-3 3-3 3-3 3-3 3-3 3-3 3-3 3-3 3-3 3-3 3-3 3-3 3-3 3-3 3-3 3-3 3-3 3-3 3-3 3-3 3-3 3-3 3-3 3-3 3-3 3-3 3-3 3-3 3-3 3-3 3-3 3-3 3-3 3-3 3-3 3-1.9 1.9c-5.3 28.8-8.1 58.5-8.1 88.8C12.5 772.7 230.6 991 499.7 991c36.4 0 71.8-4 105.9-11.6 1-.8 1.9-1.8 2.8-2.8z" id="Layer_5"/><g id="Layer_3"><path class="st2" d="M452.3 449.6c-1.1 11.6-10 21.1-21.5 23l-40.8 6.7c-16.3 2.7-30.7 11.1-41.1 23.1l146.6 119 144.2-121.8a69.282 69.282 0 0 0-38.5-19.9l-44.7-7.1c-11.9-1.9-20.8-11.6-21.7-23.5l-.4-5c-.9-11.9 4.5-23.6 14.3-30.5 42-29.6 63.9-89.3 63.9-132.9 0-62.4-36.2-125.3-116.9-125.3-80.4 0-116.9 64.9-116.9 125.3 0 49.4 25.1 103.1 61.2 130.5 9.5 7.2 14.4 18.6 13.2 30.4l-.9 8z"/><path class="st2" d="M658.4 535.8c-1.4-7.9-4.1-15.2-7.9-21.9L515.2 628.2c14.1 7.5 23.7 22.4 23.7 39.5 0 24.7-20 44.7-44.7 44.7s-44.7-20-44.7-44.7c0-17.6 10.2-32.8 25-40.1L339 517.5c-2.8 5.7-4.8 11.8-5.9 18.3l-.7 3.9c-5.5 31.6-7.7 51.1-7.7 90.2 0 71.7 12 128.8 19.2 156.5 2 7.8 9.1 13.3 17.2 13.3h265.7c8 0 15-5.4 17.2-13 8.4-30.2 22.6-90.9 22.6-158.3 0-31-2.8-62.1-8.2-92.6z"/><path class="st2" d="M674.6 533l1.5 9c2.4-.4 4.9-.7 7.4-.7 7.8 0 15.1 2.1 21.3 5.7l73.6-83.2-38.5-6.1c-7.4-1.2-13-7.3-13.6-14.7l-.4-4.6c-.6-8.3 3.1-16.4 9.9-21.2 38.9-27.4 61.7-82.4 61.7-127.8 0-63.3-37.4-122.2-114.6-122.2-32.4 0-58.3 11.1-77.1 28.8 15 23.6 23.1 53 23.1 84.6 0 26.2-6.6 54.8-18.5 80.6-3.7 7.9-7.7 15.4-12.2 22.4 8.2 12.1 18 22.8 29.1 31.3 6.5 5 10 13 9.2 21.2l-.7 7.3c-.7 7.3-6.2 13.2-13.4 14.4l-26.5 4.4 7.9 1.3c35.9 5.6 64.4 33.6 70.8 69.5zm164.8-11.2c-4.4-24.5-21.2-44.6-43.7-53.5l-78.9 89.2c5.7 7.2 9.1 16.3 9.1 26.3 0 23.5-19 42.5-42.5 42.5h-.5v2c0 57.3-9.9 109.8-18.3 143.9H803c10.7 0 20.1-7.1 22.9-17.4 7.7-27.4 20.9-84.1 20.9-146.9.2-28.9-2.3-57.7-7.4-86.1zm-531.1 103c-18.1-4.9-31.4-21.4-31.4-41 0-9.9 3.4-19 9.1-26.3l-79.9-90.4c-23.7 8.5-41.4 29.1-45.8 54.6l-.6 3.6c-4.8 27.7-7.2 46.1-7.2 83.9 0 66.3 11.1 119.1 17.8 145.2 2.7 10.5 12.2 17.8 23 17.8h130.3c-7.1-31.8-15.4-82.1-15.4-142.4.1-1.7.1-3.3.1-5zm51.5-181.7l-.4-4.6c-.6-8.3 3.1-16.4 9.9-21.2 10.6-7.5 20-17 28-27.8-21.6-31.1-35.1-71.2-35.1-108.9 0-33.4 9.5-64.7 27.1-89.2-18.2-15-42.4-24.1-72.9-24.1-74.9 0-114.6 58.9-114.6 122.2 0 44.2 22.1 97.4 58.9 125.5 6.5 5 10 13 9.2 21.2l-.7 7.3c-.7 7.3-6.2 13.2-13.4 14.4l-32 5.3 74.3 84c5.2-3 11.1-5 17.4-5.5.3-1.5.5-3.1.8-4.7l.7-3.9c6.2-35.8 34.5-63.9 70.4-69.8l9.7-1.6-23.6-3.7c-7.5-1.4-13.2-7.5-13.7-14.9z"/></g></svg>