<svg xmlns="http://www.w3.org/2000/svg" viewBox="0 0 1000 1000"><style>.st0{fill:#008c8c}.st1{fill:#017572}.st2{fill:#fff}</style><ellipse class="st0" cx="499.7" cy="503.5" rx="487.2" ry="487.5" id="Layer_2"/><path class="st1" d="M592.5 977.3l3-3 3-3 3-3 3-3 3-3 3-3 3-3 3-3 3-3 3-3 3-3 3-3 3-3 3-3 3-3 3-3 3-3 3-3 3-3 3-3 3-3 3-3 3-3 3-3 3-3 3-3 3-3 3-3 3-3 3-3 3-3 3-3 3-3 3-3 3-3 3-3 3-3 3-3 3-3 3-3 3-3 3-3 3-3 3-3 3-3 3-3 3-3 3-3 3-3 3-3 3-3 3-3 3-3 3-3 3-3 3-3 3-3 3-3 3-3 3-3 3-3 3-3 3-3 3-3 3-3 3-3 3-3 3-3 3-3 3-3 3-3 3-3 3-3 3-3 3-3 3-3 3-3 3-3 3-3 3-3c18.4-18 27.6-33.9 27.6-43.8V544.6c0-13.8-11.3-25-25-25h-5c5.1-30.5 9.7-60.9 4.4-85.9-10.7-50.4-27.3-58.3-48.7-58.1-13.6.2-19.8 20.3-39 20.3s-35-28.7-67.7-17.8c-6.2 2.1-11.7 5.9-16.6 11.2-1 .9-2 1.9-3 3-1 .9-2 1.9-3 3-1 .9-2 1.9-3 3-1 .9-2 1.9-3 3-1 .9-2 1.9-3 3-1 .9-2 1.9-3 3-1 .9-2 1.9-3 3-1 .9-2 1.9-3 3-1 .9-2 1.9-3 3-1 .9-2 1.9-3 3-1 .9-2 1.9-3 3-1 .9-2 1.9-3 3-1 .9-2 1.9-3 3-1 .9-2 1.9-3 3-1 .9-2 1.9-3 3-1 .9-2 1.9-3 3-1 .9-2 1.9-3 3-1 .9-2 1.9-3 3-1 .9-2 1.9-3 3-1 .9-2 1.9-3 3-1 .9-2 1.9-3 3-1 .9-2 1.9-3 3-1 .9-2 1.9-3 3-1 .9-2 1.9-3 3-1 .9-2 1.9-3 3-1 .9-2 1.9-3 3-1 .9-2 1.9-3 3-1 .9-2 1.9-3 3-1 .9-2 1.9-3 3-1 .9-2 1.9-3 3-1 .9-2 1.9-3 3-1 .9-2 1.9-3 3-1 .9-2 1.9-3 3-1 .9-2 1.9-3 3-1 .9-2 1.9-3 3-1 .9-2 1.9-3 3-1 .9-2 1.9-3 3-1 .9-2 1.9-3 3-1 .9-2 1.9-3 3-1 .9-2 1.9-3 3-1 .9-2 1.9-3 3-1 .9-2 1.9-3 3-1 .9-2 1.9-3 3-1 .9-2 1.9-3 3-1 .9-2 1.9-3 3-1 .9-2 1.9-3 3-1 .9-2 1.9-3 3-1 .9-2 1.9-3 3-1 .9-2 1.9-3 3-1 .9-2 1.9-3 3-1 .9-2 1.9-3 3-1 .9-2 1.9-3 3-1 .9-2 1.9-3 3-1 .9-2 1.9-3 3-.4.4-.8.8-1.3 1.2-20.6.1-38.2-1.2-53.2-3.2.2-.3.3-.6.5-.9 1.3-.6 2.4-1.6 3-3 1.3-.6 2.4-1.6 3-3 1.3-.6 2.4-1.6 3-3 1.3-.6 2.4-1.6 3-3 1.3-.6 2.4-1.6 3-3 1.3-.6 2.4-1.6 3-3 1.3-.6 2.4-1.6 3-3 1.3-.6 2.4-1.6 3-3 1.3-.6 2.4-1.6 3-3 1.3-.6 2.4-1.6 3-3 1.3-.6 2.4-1.6 3-3 1.3-.6 2.4-1.6 3-3 1.3-.6 2.4-1.6 3-3 1.3-.6 2.4-1.6 3-3 1.3-.6 2.4-1.6 3-3 1.3-.6 2.4-1.6 3-3 1.3-.6 2.4-1.6 3-3 1.3-.6 2.4-1.6 3-3 1.3-.6 2.4-1.6 3-3 1.3-.6 2.4-1.6 3-3 1.3-.6 2.4-1.6 3-3 1.3-.6 2.4-1.6 3-3 1.3-.6 2.4-1.6 3-3 1.3-.6 2.4-1.6 3-3 1.3-.6 2.4-1.6 3-3 1.3-.6 2.4-1.6 3-3 1.3-.6 2.4-1.6 3-3 1.3-.6 2.4-1.6 3-3 1.3-.6 2.4-1.6 3-3 1.3-.6 2.4-1.6 3-3 1.3-.6 2.4-1.6 3-3 1.3-.6 2.4-1.6 3-3 1.3-.6 2.4-1.6 3-3 1.3-.6 2.4-1.6 3-3 1.3-.6 2.4-1.6 3-3 1.3-.6 2.4-1.6 3-3 1.3-.6 2.4-1.6 3-3 1.3-.6 2.4-1.6 3-3 1.3-.6 2.4-1.6 3-3 1.3-.6 2.4-1.6 3-3 1.3-.6 2.4-1.6 3-3 1.3-.6 2.4-1.6 3-3 1.3-.6 2.4-1.6 3-3 1.3-.6 2.4-1.6 3-3 1.3-.6 2.4-1.6 3-3 1.3-.6 2.4-1.6 3-3 1.3-.6 2.4-1.6 3-3 1.3-.6 2.4-1.6 3-3 1.3-.6 2.4-1.6 3-3 1.3-.6 2.4-1.6 3-3 1.3-.6 2.4-1.6 3-3 1.3-.6 2.4-1.6 3-3 1.3-.6 2.4-1.6 3-3 1.3-.6 2.4-1.6 3-3 1.3-.6 2.4-1.6 3-3 1.3-.6 2.4-1.6 3-3 1.3-.6 2.4-1.6 3-3 1.3-.6 2.4-1.6 3-3 1.3-.6 2.4-1.6 3-3 1.3-.6 2.4-1.6 3-3 1.3-.6 2.4-1.6 3-3 1.3-.6 2.4-1.6 3-3 1.3-.6 2.4-1.6 3-3 1.3-.6 2.4-1.6 3-3 1.3-.6 2.4-1.6 3-3 1.3-.6 2.4-1.6 3-3 1.3-.6 2.4-1.6 3-3 1.3-.6 2.4-1.6 3-3 1.3-.6 2.4-1.6 3-3 1.3-.6 2.4-1.6 3-3 1.3-.6 2.4-1.6 3-3 1.3-.6 2.4-1.6 3-3 1.3-.6 2.4-1.6 3-3 1.3-.6 2.4-1.6 3-3 1.3-.6 2.4-1.6 3-3 1.3-.6 2.4-1.6 3-3 1.3-.6 2.4-1.6 3-3 1.3-.6 2.4-1.6 3-3 1.3-.6 2.4-1.6 3-3 1.3-.6 2.4-1.6 3-3 1.8-.7 3.1-2.4 3.4-4.4l.4-2.6c.5-3.4-2-6.4-5.4-6.5-11.7-.5-37.2 1-55.4 20.5-1 .9-2 1.9-3 3-1 .9-2 1.9-3 3-1 .9-2 1.9-3 3-1 .9-2 1.9-3 3-1 .9-2 1.9-3 3-1 .9-2 1.9-3 3-.6.6-1.2 1.1-1.8 1.7-.5.3-1 .7-1.5 1 .1-.6.3-1.3.4-1.9 8.1-45.2 12.3-72.4 4.1-111-11.6-54.4-29.4-62.9-52.5-62.6-14.7.2-21.3 21.9-42 21.9s-37.7-30.9-73.1-19.2c-6.6 2.2-12.6 6.3-17.8 11.9-1 .9-2 1.9-3 3-1 .9-2 1.9-3 3-1 .9-2 1.9-3 3-1 .9-2 1.9-3 3-1 .9-2 1.9-3 3-1 .9-2 1.9-3 3-1 .9-2 1.9-3 3-1 .9-2 1.9-3 3-1 .9-2 1.9-3 3-1 .9-2 1.9-3 3-1 .9-2 1.9-3 3-1 .9-2 1.9-3 3-1 .9-2 1.9-3 3-1 .9-2 1.9-3 3-1 .9-2 1.9-3 3-1 .9-2 1.9-3 3-1 .9-2 1.9-3 3-1 .9-2 1.9-3 3-1 .9-2 1.9-3 3-1 .9-2 1.9-3 3-1 .9-2 1.9-3 3-1 .9-2 1.9-3 3-1 .9-2 1.9-3 3-1 .9-2 1.9-3 3-1 .9-2 1.9-3 3-1 .9-2 1.9-3 3-1 .9-2 1.9-3 3-1 .9-2 1.9-3 3-1 .9-2 1.9-3 3-1 .9-2 1.9-3 3-1 .9-2 1.9-3 3-1 .9-2 1.9-3 3-1 .9-2 1.9-3 3-1 .9-2 1.9-3 3-1 .9-2 1.9-3 3-1 .9-2 1.9-3 3-1 .9-2 1.9-3 3-1 .9-2 1.9-3 3-1 .9-2 1.9-3 3-1 .9-2 1.9-3 3-1 .9-2 1.9-3 3-1 .9-2 1.9-3 3-1 .9-2 1.9-3 3-1 .9-2 1.9-3 3-1 .9-2 1.9-3 3-1 .9-2 1.9-3 3-1 .9-2 1.9-3 3-1 .9-2 1.9-3 3-1 .9-2 1.9-3 3-1 .9-2 1.9-3 3-1 .9-2 1.9-3 3-1 .9-2 1.9-3 3-1 .9-2 1.9-3 3-1 .9-2 1.9-3 3-1 .9-2 1.9-3 3-1 .9-2 1.9-3 3-1 .9-2 1.9-3 3-1 .9-2 1.9-3 3-1 .9-2 1.9-3 3-1 .9-2 1.9-3 3-1 .9-2 1.9-3 3l-2.1 2.1c-9-3.6-19.5-5.1-32.4-.8-6.5 2.2-12.4 6.2-17.5 11.7-1 .9-2 1.9-3 3-1 .9-2 1.9-3 3-1 .9-2 1.9-3 3-1 .9-2 1.9-3 3-1 .9-2 1.9-3 3-1 .9-2 1.9-3 3-1 .9-2 1.9-3 3-1 .9-2 1.9-3 3-1 .9-2 1.9-3 3-1 .9-2 1.9-3 3-1 .9-2 1.9-3 3-1 .9-2 1.9-3 3-1 .9-2 1.9-3 3-1 .9-2 1.9-3 3-1 .9-2 1.9-3 3-1 .9-2 1.9-3 3-1 .9-2 1.9-3 3-1 .9-2 1.9-3 3-1 .9-2 1.9-3 3-1 .9-2 1.9-3 3-1 .9-2 1.9-3 3-1 .9-2 1.9-3 3-1 .9-2 1.9-3 3-1 .9-2 1.9-3 3-1 .9-2 1.9-3 3-1 .9-2 1.9-3 3-1 .9-2 1.9-3 3-1 .9-2 1.9-3 3-1 .9-2 1.9-3 3-1 .9-2 1.9-3 3-1 .9-2 1.9-3 3-1 .9-2 1.9-3 3-1 .9-2 1.9-3 3-1 .9-2 1.9-3 3-1 .9-2 1.9-3 3-1 .9-2 1.9-3 3-1 .9-2 1.9-3 3-1 .9-2 1.9-3 3-1 .9-2 1.9-3 3-1 .9-2 1.9-3 3-1 .9-2 1.9-3 3-1 .9-2 1.9-3 3-1 .9-2 1.9-3 3-1 .9-2 1.9-3 3-1 .9-2 1.9-3 3-1 .9-2 1.9-3 3-1 .9-2 1.9-3 3-1 .9-2 1.9-3 3-1 .9-2 1.9-3 3-1 .9-2 1.9-3 3-1 .9-2 1.9-3 3-1 .9-2 1.9-3 3-1 .9-2 1.9-3 3-1 .9-2 1.9-3 3-1 .9-2 1.9-3 3-1 .9-2 1.9-3 3-1 .9-2 1.9-3 3-1 .9-2 1.9-3 3-1 .9-2 1.9-3 3l-.9.9C37.5 796.8 245.9 991 499.7 991c29.6 0 58.7-2.7 86.9-7.7l3-3c1-1 2-2 2.9-3z" id="Layer_4"/><g id="Layer_3"><path class="st2" d="M835.1 519.6h-5c5.1-30.5 9.7-60.9 4.4-85.9-10.7-50.4-27.3-58.3-48.7-58.1-13.6.2-19.8 20.3-39 20.3s-35-28.7-67.7-17.8c-32.7 10.9-47 71-36.1 134.1.4 2.5.8 5 1.3 7.4 0 0-40.5 32.3-144.5 32.8S368 519.6 368 519.6c6-35.7 12.7-72.1 6.4-101.5-11.3-53.4-28.9-61.8-51.5-61.5-14.4.2-20.9 21.5-41.2 21.5s-37.1-30.4-71.7-18.9c-34.7 11.5-49.8 75.2-38.3 142 1.1 6.1 2.1 12.2 3.1 18.4h-10.4c-13.8 0-25 11.3-25 25v148.9c0 31.5 111.7 153 355.1 153s365.7-117 365.7-153V544.6c-.1-13.7-11.3-25-25.1-25z"/><path class="st2" d="M685 294.8c-12.8-.5-42 1.3-60.1 26.2-4.3 5.9-9.8 10.8-16.5 15 .1-.6.3-1.3.4-1.9 8.1-45.2 12.3-72.4 4.1-111-11.6-54.4-29.4-62.9-52.5-62.6-14.7.2-21.3 21.9-42 21.9s-37.7-30.9-73.1-19.2c-35.3 11.7-50.7 76.6-39 144.6 2.2 12.8 5.2 23.5 8.8 32.6-10.6-4.8-18.8-11.2-24.7-19.3-18.2-24.9-47.3-26.7-60.1-26.2-3.4.1-5.9 3.2-5.4 6.5l.4 2.6c.4 2.8 2.9 4.9 5.8 4.8 10.2-.4 33.9 1.1 48 20.4 10 13.7 25.1 23.4 45.5 29.2 27.2 40.1 71 24.7 85.3 24.6 19.6-.1 72.2 15 92.6-28.6 14.5-5.9 25.7-14.3 33.7-25.2 14.1-19.4 37.8-20.8 48-20.4 2.9.1 5.4-2 5.8-4.8l.4-2.6c.5-3.4-2-6.5-5.4-6.6z"/></g></svg>