<svg xmlns="http://www.w3.org/2000/svg" viewBox="0 0 1000 1000"><style>.st0{fill:#f47a0b}.st1{fill:none}.st2{fill:#e56e0c}.st3{fill:#fff}</style><ellipse class="st0" cx="499.7" cy="503.5" rx="487.2" ry="487.5" id="Layer_2"/><g id="Layer_5"><path class="st1" d="M30.2 624.1h-2.6c.2.7.3 1.4.5 2.1.4-.4.9-.9 1.4-1.3.2-.3.4-.5.7-.8zm567.6-366.7c-.5-.1-1-.3-1.5-.4.3.2.6.3.9.5.2 0 .4-.1.6-.1z"/><path class="st1" d="M986.9 503.5C986.9 234.2 768.8 16 499.7 16 268.8 16 75.4 176.8 25.2 392.6c.9-.9 1.7-1.8 2.7-2.7l3-3 3-3 3-3 3-3 3-3 3-3 3-3 3-3 3-3 3-3 3-3 3-3 3-3 3-3 3-3 3-3 3-3 3-3 3-3 3-3 3-3 3-3 3-3 3-3 3-3 3-3 3-3 3-3 3-3 3-3 3-3 3-3 3-3 3-3 3-3 3-3 3-3 3-3 3-3 3-3 3-3 3-3 3-3 3-3 3-3 3-3 3-3 3-3 3-3 3-3 3-3 3-3 3-3 3-3 3-3 3-3 3-3 3-3 3-3 3-3 3-3 3-3 3-3 3-3 3-3 3-3 3-3 3-3c10.1-10.9 24.6-17.8 40.7-17.8h158.5c30.7 0 55.5 24.8 55.5 55.5v35.6c.3-.3.6-.5 1-.8.8-1.2 1.8-2.2 3-3 .8-1.2 1.8-2.2 3-3 .8-1.2 1.8-2.2 3-3 .8-1.2 1.8-2.2 3-3 .8-1.2 1.8-2.2 3-3 2.2-3.2 5.9-5.2 10.1-5.2h16.9c4.3 0 8.1 2.2 10.3 5.6.7-1.1 1.7-2.1 2.9-2.8.8-1.2 1.8-2.2 3-3 .8-1.2 1.8-2.2 3-3 .8-1.2 1.8-2.2 3-3 .8-1.2 1.8-2.2 3-3 1.6-2.6 4.6-4.4 7.9-4.4h5c4.9 2 9.4 4 13.4 6h4.1c4.5 0 8.3 3.2 9.1 7.4 2.5 1.6 4.6 3 6.2 4.1v3.8c-2-1-3.9-1.9-5.9-2.8 1.1.7 2.1 1.4 2.9 2v3.8c-2-1-3.9-1.9-5.9-2.8 1.1.7 2.1 1.4 2.9 2v3.2c2 .9 3.9 1.9 5.8 3 .7-.2 1.5-.3 2.3-.3h.2v-2.5c.9-.3 1.8-.5 2.8-.5h.2v-2.5c.9-.3 1.8-.5 2.8-.5h.2v-2.5c.9-.3 1.8-.5 2.8-.5 6 0 10.8 6.2 10.8 13.8 0 5.3-2.3 9.9-5.8 12.2-.9 1.2-1.9 2.2-3 3-.9 1.2-1.9 2.2-3 3-.9 1.2-1.9 2.2-3 3-.9 1.2-1.9 2.2-3 3-.9 1.2-1.9 2.2-3 3-.7 1.1-1.6 2-2.6 2.7h.1c-.8 1.2-1.8 2.3-3 3.1-.8 1.2-1.8 2.2-3 3-.8 1.2-1.8 2.2-3 3-.8 1.2-1.8 2.2-3 3-.8 1.2-1.8 2.2-3 3-.8 1.2-1.8 2.2-3 3-.8 1.2-1.8 2.2-3 3-.8 1.2-1.8 2.2-3 3-.8 1.2-1.8 2.2-3 3-.8 1.2-1.8 2.2-3 3-.8 1.2-1.8 2.2-3 3-.8 1.2-1.8 2.2-3 3-.8 1.2-1.8 2.2-3 3-.8 1.2-1.8 2.2-3 3-.1.2-.3.4-.5.6 46.8-10.8 70.7 30.2 99.5 30.2 30.3 0 39.9-31.7 61.4-32 33.7-.4 59.9 12 76.8 91.5 12 56.5-8 130-16.6 196.6-13.9 108.5-31.9 203-51.6 218.6-1 1.2-2 2.2-3 3-1 1.2-2 2.2-3 3-1 1.2-2 2.2-3 3-1 1.2-2 2.2-3 3-1 1.2-2 2.2-3 3-1 1.2-2 2.2-3 3-1 1.2-2 2.2-3 3-1 1.2-2 2.2-3 3-1 1.2-2 2.2-3 3-1 1.2-2 2.2-3 3-1 1.2-2 2.2-3 3-1 1.2-2 2.2-3 3-1 1.2-2 2.2-3 3-1 1.2-2 2.2-3 3-1 1.2-2 2.2-3 3-1 1.2-2 2.2-3 3-1 1.2-2 2.2-3 3-1 1.2-2 2.2-3 3-1 1.2-2 2.2-3 3-1 1.2-2 2.2-3 3-1 1.2-2 2.2-3 3-1 1.2-2 2.2-3 3-1 1.2-2 2.2-3 3-1 1.2-2 2.2-3 3-1 1.2-2 2.2-3 3-1 1.2-2 2.2-3 3-1 1.2-2 2.2-3 3-1 1.2-2 2.2-3 3-1 1.2-2 2.2-3 3-1 1.2-2 2.2-3 3-1 1.2-2 2.2-3 3-1 1.2-2 2.2-3 3-1 1.2-2 2.2-3 3-1 1.2-2 2.2-3 3-1 1.2-2 2.2-3 3-1 1.2-2 2.2-3 3-1 1.2-2 2.2-3 3-1 1.2-2 2.2-3 3-1 1.2-2 2.2-3 3-1 1.2-2 2.2-3 3-1 1.2-2 2.2-3 3-1 1.2-2 2.2-3 3-1 1.2-2 2.2-3 3-1 1.2-2 2.2-3 3-1 1.2-2 2.2-3 3-1 1.2-2 2.2-3 3-1 1.2-2 2.2-3 3-1 1.2-2 2.2-3 3-1 1.2-2 2.2-3 3-.3.4-.7.8-1 1.2 231.8-37.3 408.8-238.5 408.8-481zM582.8 227.6h5.2c4.8 0 8.8 3.7 9.3 8.4-3.7-2.4-8.6-5.3-14.5-8.4zm3-3h5.2c4.8 0 8.8 3.7 9.3 8.4-3.7-2.4-8.6-5.3-14.5-8.4z"/><path class="st1" d="M594.8 260.4c-.5-.1-1-.3-1.5-.4.3.2.6.3.9.5.2 0 .4-.1.6-.1zm-3 3c-.5-.1-1-.3-1.5-.4.3.2.6.3.9.5.2 0 .4-.1.6-.1z"/><path class="st2" d="M591.1 224.6h-5.2c5.9 3 10.7 5.9 14.5 8.4-.6-4.7-4.5-8.4-9.3-8.4zm-9 756c1-.8 2-1.8 3-3 1-.8 2-1.8 3-3 1-.8 2-1.8 3-3 1-.8 2-1.8 3-3 1-.8 2-1.8 3-3 1-.8 2-1.8 3-3 1-.8 2-1.8 3-3 1-.8 2-1.8 3-3 1-.8 2-1.8 3-3 1-.8 2-1.8 3-3 1-.8 2-1.8 3-3 1-.8 2-1.8 3-3 1-.8 2-1.8 3-3 1-.8 2-1.8 3-3 1-.8 2-1.8 3-3 1-.8 2-1.8 3-3 1-.8 2-1.8 3-3 1-.8 2-1.8 3-3 1-.8 2-1.8 3-3 1-.8 2-1.8 3-3 1-.8 2-1.8 3-3 1-.8 2-1.8 3-3 1-.8 2-1.8 3-3 1-.8 2-1.8 3-3 1-.8 2-1.8 3-3 1-.8 2-1.8 3-3 1-.8 2-1.8 3-3 1-.8 2-1.8 3-3 1-.8 2-1.8 3-3 1-.8 2-1.8 3-3 1-.8 2-1.8 3-3 1-.8 2-1.8 3-3 1-.8 2-1.8 3-3 1-.8 2-1.8 3-3 1-.8 2-1.8 3-3 1-.8 2-1.8 3-3 1-.8 2-1.8 3-3 1-.8 2-1.8 3-3 1-.8 2-1.8 3-3 1-.8 2-1.8 3-3 1-.8 2-1.8 3-3 1-.8 2-1.8 3-3 1-.8 2-1.8 3-3 1-.8 2-1.8 3-3 1-.8 2-1.8 3-3 1-.8 2-1.8 3-3 1-.8 2-1.8 3-3 1-.8 2-1.8 3-3 19.7-15.6 37.7-110.2 51.6-218.6 8.5-66.6 28.5-140.2 16.6-196.6-16.9-79.5-43-92-76.8-91.5-21.5.3-31.2 32-61.4 32-28.8 0-52.8-41-99.5-30.2.2-.2.3-.4.5-.6 1.2-.8 2.2-1.8 3-3 1.2-.8 2.2-1.8 3-3 1.2-.8 2.2-1.8 3-3 1.2-.8 2.2-1.8 3-3 1.2-.8 2.2-1.8 3-3 1.2-.8 2.2-1.8 3-3 1.2-.8 2.2-1.8 3-3 1.2-.8 2.2-1.8 3-3 1.2-.8 2.2-1.8 3-3 1.2-.8 2.2-1.8 3-3 1.2-.8 2.2-1.8 3-3 1.2-.8 2.2-1.8 3-3 1.2-.8 2.2-1.8 3-3 1.2-.8 2.3-1.8 3-3.1h-.1c1-.7 1.8-1.6 2.6-2.7 1.1-.8 2.1-1.8 3-3 1.1-.8 2.1-1.8 3-3 1.1-.8 2.1-1.8 3-3 1.1-.8 2.1-1.8 3-3 1.1-.8 2.1-1.8 3-3 3.4-2.3 5.8-6.9 5.8-12.2 0-7.6-4.8-13.8-10.8-13.8-1 0-1.9.2-2.8.5v2.5h-.2c-1 0-1.9.2-2.8.5v2.5h-.2c-1 0-1.9.2-2.8.5v2.5h-.2c-.8 0-1.5.1-2.3.3-1.9-1.1-3.9-2.1-5.8-3v-3.2c-.8-.6-1.8-1.3-2.9-2 2 .8 4 1.8 5.9 2.8v-3.8c-.8-.6-1.8-1.3-2.9-2 2 .8 4 1.8 5.9 2.8v-3.8c-1.6-1.2-3.7-2.6-6.2-4.1-.9-4.2-4.6-7.4-9.1-7.4h-4.1c-4-2-8.5-4-13.4-6h-5c-3.3 0-6.3 1.8-7.9 4.4-1.2.8-2.2 1.8-3 3-1.2.8-2.2 1.8-3 3-1.2.8-2.2 1.8-3 3-1.2.8-2.2 1.8-3 3-1.1.7-2.1 1.7-2.9 2.8-2.2-3.4-6-5.6-10.3-5.6h-16.9c-4.2 0-7.9 2.1-10.1 5.2-1.2.8-2.2 1.8-3 3-1.2.8-2.2 1.8-3 3-1.2.8-2.2 1.8-3 3-1.2.8-2.2 1.8-3 3-1.2.8-2.2 1.8-3 3-.3.2-.7.5-1 .8v-35.6c0-30.7-24.8-55.5-55.5-55.5H272.6c-16.1 0-30.6 6.9-40.7 17.8l-3 3-3 3-3 3-3 3-3 3-3 3-3 3-3 3-3 3-3 3-3 3-3 3-3 3-3 3-3 3-3 3-3 3-3 3-3 3-3 3-3 3-3 3-3 3-3 3-3 3-3 3-3 3-3 3-3 3-3 3-3 3-3 3-3 3-3 3-3 3-3 3-3 3-3 3-3 3-3 3-3 3-3 3-3 3-3 3-3 3-3 3-3 3-3 3-3 3-3 3-3 3-3 3-3 3-3 3-3 3-3 3-3 3-3 3-3 3-3 3-3 3-3 3-3 3-3 3-3 3-3 3-3 3-3 3c-.9.9-1.8 1.7-2.7 2.7-8.3 35.6-12.7 72.8-12.7 110.9 0 41.6 5.2 82.1 15 120.7h2.6c-.2.3-.5.5-.7.8-.5.4-.9.9-1.4 1.3C82.5 836 273 991 499.7 991c26.7 0 52.8-2.2 78.3-6.3.3-.4.7-.7 1-1.2 1.1-.7 2.1-1.7 3.1-2.9zm15.7-723.2c-.2 0-.4.1-.6.1-.3-.2-.6-.3-.9-.5.5.1 1 .3 1.5.4zm-3 3c-.2 0-.4.1-.6.1-.3-.2-.6-.3-.9-.5.5.1 1 .3 1.5.4zm-3 3c-.2 0-.4.1-.6.1-.3-.2-.6-.3-.9-.5.5.1 1 .3 1.5.4z"/><path class="st2" d="M588.1 227.6h-5.2c5.9 3 10.7 5.9 14.5 8.4-.6-4.7-4.5-8.4-9.3-8.4z"/></g><path class="st3" d="M409.3 784.3H304.5c-23.9 0-43.3-19.4-43.3-43.3V411c0-23.9 19.4-43.3 43.3-43.3h104.7c23.9 0 43.3 19.4 43.3 43.3v330c.1 23.9-19.3 43.3-43.2 43.3zm21.8-436.2H272.6c-30.7 0-55.5-24.8-55.5-55.5v-69c0-30.7 24.8-55.5 55.5-55.5h158.5c30.7 0 55.5 24.8 55.5 55.5v69c0 30.7-24.9 55.5-55.5 55.5zm98.4-68.4h-16.9c-6.8 0-12.3-5.5-12.3-12.3v-16.9c0-6.8 5.5-12.3 12.3-12.3h16.9c6.8 0 12.3 5.5 12.3 12.3v16.9c0 6.8-5.5 12.3-12.3 12.3zm23.7-37.6v10.5c9.6 0 29.5.6 47.1 5.4v-3.4c-17-10-36.8-12.1-47.1-12.5zm0 41.5v.4c0 4.7 3.5 8.6 8.1 9.2 8.6-5 22.1-10.9 39-12.1v-3.7c-17.9-.8-37.8 3.7-47.1 6.2zm0-23.4v15.6c10.3-2.6 29.3-6.7 47.1-5.9v-4c-16.9-5.1-37.4-5.7-47.1-5.7zm25.9 33.1H591c3.4 0 6.3-1.8 7.9-4.5-7.3.8-14 2.5-19.8 4.5zm21.3-47.3v-3.8c-5.6-4-16.8-11.2-32.8-17.6h-5c-5.1 0-9.3 4.2-9.3 9.3v.5c10.2.4 29.3 2.4 47.1 11.6zm-.1-13c-.5-4.7-4.4-8.4-9.3-8.4h-5.2c5.9 3.1 10.8 6 14.5 8.4zm11.1 12.2c-1 0-1.9.2-2.8.5v26.6c.9.3 1.8.5 2.8.5 6 0 10.8-6.2 10.8-13.8 0-7.6-4.8-13.8-10.8-13.8zm182.8 176.1c-16.9-79.5-43-92-76.8-91.5-21.5.3-31.2 32-61.4 32-30.3 0-55.2-45.2-106.8-28.1-51.6 17.1-74.1 112-57 211.4 25.5 147.8 36.1 307.9 84.6 292.1 18.7-6.1 25.2-94.8 29.4-121 4.8-30.2 10.7-60.7 37.6-60.9 32.3-.2 57.1 174.7 73.2 182.7 23.2 11.5 44.7-95 60.7-220.1 8.5-66.6 28.5-140.2 16.5-196.6z" id="Layer_3"/></svg>