<svg xmlns="http://www.w3.org/2000/svg" viewBox="0 0 1000 1000"><style>.st0{fill:#f47a0b}.st1{fill:none}.st2{fill:#e56e0c}.st3{fill:#fff}</style><ellipse class="st0" cx="499.7" cy="503.5" rx="487.2" ry="487.5" id="Layer_2"/><g id="Layer_4"><path class="st1" d="M479.9 935.1c-1 1.2-2 2.2-3 3-1 1.2-2 2.2-3 3-1 1.2-2 2.2-3 3-1 1.2-2 2.2-3 3-1 1.2-2 2.2-3 3-1 1.2-2 2.2-3 3-1 1.2-2 2.2-3 3-1 1.2-2 2.2-3 3-1 1.2-2 2.2-3 3-1 1.2-2 2.2-3 3-1 1.2-2 2.2-3 3-1 1.2-2 2.2-3 3-1 1.2-2 2.2-3 3-1 1.2-2 2.2-3 3-1 1.2-2 2.2-3 3-1 1.2-2 2.2-3 3-.9 1.1-1.9 2-2.8 2.8 23.1 3.3 46.6 5.1 70.6 5.1 7.2 0 14.4-.2 21.6-.5l-41.2-55.6-.2.2zM202.7 400.8c1-1.1 2-2.1 3-3l3-3 3-3 3-3 3-3 3-3 3-3 3-3 3-3 3-3 3-3 3-3 3-3 3-3 3-3c.5-.5.9-1 1.4-1.4-13.7.8-27.4 2.6-40.9 5.5-2.9 13.4-4.7 27.1-5.5 40.9z"/><path class="st2" d="M648.6 967.2c1.1-.9 2-1.8 2.8-2.9l.2-.1c1.1-.9 2-1.8 2.8-2.9l.2-.1c1.1-.9 2-1.8 2.8-2.9l.2-.1c1.1-.9 2-1.8 2.8-2.9l.2-.1c1.1-.9 2-1.8 2.8-2.9l.2-.1c1.1-.9 2-1.8 2.8-2.9l.2-.1c1.1-.9 2-1.8 2.8-2.9l.2-.1c1.1-.9 2-1.8 2.8-2.9l.2-.1c1.1-.9 2-1.8 2.8-2.9l.2-.1c1.1-.9 2-1.8 2.8-2.9l.2-.1c1.1-.9 2-1.8 2.8-2.9l.2-.1c1.1-.9 2-1.8 2.8-2.9l.2-.1c1.1-.9 2-1.8 2.8-2.9l.2-.1c1.1-.9 2-1.8 2.8-2.9l.2-.1c1.1-.9 2-1.8 2.8-2.9l.2-.1c1.1-.9 2-1.8 2.8-2.9l.2-.1c1.1-.9 2-1.8 2.8-2.9l.2-.1c1.1-.9 2-1.8 2.8-2.9l.2-.1c1.1-.9 2-1.8 2.8-2.9l.2-.1c1.1-.9 2-1.8 2.8-2.9l.2-.1c1.1-.9 2-1.8 2.8-2.9l.2-.1c1.1-.9 2-1.8 2.8-2.9l.2-.1c1.1-.9 2-1.8 2.8-2.9l.2-.1c1.1-.9 2-1.8 2.8-2.9l.2-.1c1.1-.9 2-1.8 2.8-2.9l.2-.1c1.1-.9 2-1.8 2.8-2.9l.2-.1c1.1-.9 2-1.8 2.8-2.9l.2-.1c1.1-.9 2-1.8 2.8-2.9l.2-.1c1.1-.9 2-1.8 2.8-2.9l.2-.1c1.1-.9 2-1.8 2.8-2.9l.2-.1c1.1-.9 2-1.8 2.8-2.9l.2-.1c1.1-.9 2-1.8 2.8-2.9l.2-.1c1.1-.9 2-1.8 2.8-2.9l.2-.1c1.1-.9 2-1.8 2.8-2.9l.2-.1c1.1-.9 2-1.8 2.8-2.9l.2-.1c1.1-.9 2-1.8 2.8-2.9l.2-.1c1.1-.9 2-1.8 2.8-2.9l.2-.1c1.1-.9 2-1.8 2.8-2.9l.2-.1c1.1-.9 2-1.8 2.8-2.9l.2-.1c1.1-.9 2-1.8 2.8-2.9l.2-.1c1.1-.9 2-1.8 2.8-2.9l.2-.1c1.1-.9 2-1.8 2.8-2.9l.2-.1c1.1-.9 2-1.8 2.8-2.9l.2-.1c1.1-.9 2-1.8 2.8-2.9l.2-.1c1.1-.9 2-1.8 2.8-2.9l.2-.1c1.1-.9 2-1.8 2.8-2.9l.2-.1c1.1-.9 2-1.8 2.8-2.9l.2-.1c1.1-.9 2-1.8 2.8-2.9l.2-.1c1.1-.9 2-1.8 2.8-2.9l.2-.1c1.1-.9 2-1.8 2.8-2.9l.2-.1c1.1-.9 2-1.8 2.8-2.9l.2-.1c1.1-.9 2-1.8 2.8-2.9l.2-.1c7.9-6.3 8.9-17.9 2.3-25.5l-35.3-40.8c.1-.1.1-.2.2-.2 1.1-1 2.1-2 3-3 1.1-1 2.1-2 3-3 1.1-1 2.1-2 3-3 1.1-1 2.1-2 3-3 1.1-1 2.1-2 3-3 1.1-1 2.1-2 3-3 1.1-1 2.1-2 3-3 1.1-1 2.1-2 3-3 1.1-1 2.1-2 3-3 1.1-1 2.1-2 3-3 1.1-1 2.1-2 3-3 1.1-1 2.1-2 3-3 1.1-1 2.1-2 3-3 1.1-1 2.1-2 3-3 1.1-1 2.1-2 3-3 1.1-1 2.1-2 3-3 1.1-1 2.1-2 3-3 1.1-1 2.1-2 3-3 1.1-1 2.1-2 3-3 1.1-1 2.1-2 3-3 1.1-1 2.1-2 3-3 1.1-1 2.1-2 3-3 1.1-1 2.1-2 3-3 1.1-1 2.1-2 3-3 1.1-1 2.1-2 3-3 1.1-1 2.1-2 3-3 1.1-1 2.1-2 3-3 1.1-1 2.1-2 3-3 1.1-1 2.1-2 3-3 1.1-1 2.1-2 3-3 1.1-1 2.1-2 3-3 1.1-1 2.1-2 3-3 1.1-1 2.1-2 3-3 9.8-8.6 12.9-21.2 6.8-28.7L744.2 456.1c10.8-74-7.9-152.2-58.4-215.1-96.4-120.3-272.2-139.7-392.5-43.3-8.5 6.8-16.4 14-23.9 21.5l-3 3-3 3-3 3-3 3-3 3-3 3-3 3-3 3-3 3-3 3-3 3-3 3-3 3-3 3-3 3-3 3-3 3-3 3-3 3-3 3-3 3-3 3-3 3-3 3-3 3-3 3-3 3-3 3-3 3-3 3-3 3-3 3-3 3-3 3-3 3-3 3-3 3-3 3-3 3-3 3-3 3-3 3-3 3-3 3-3 3-3 3-3 3-3 3-3 3-3 3-3 3-3 3-3 3-3 3-3 3-3 3-3 3-3 3-3 3-3 3-3 3-3 3-3 3-3 3-3 3-3 3-3 3c-23.5 23-42.2 49.4-55.9 77.7v5.6c0 245.3 181 448.2 416.6 482.4.9-.8 1.9-1.7 2.8-2.8 1-.8 2-1.8 3-3 1-.8 2-1.8 3-3 1-.8 2-1.8 3-3 1-.8 2-1.8 3-3 1-.8 2-1.8 3-3 1-.8 2-1.8 3-3 1-.8 2-1.8 3-3 1-.8 2-1.8 3-3 1-.8 2-1.8 3-3 1-.8 2-1.8 3-3 1-.8 2-1.8 3-3 1-.8 2-1.8 3-3 1-.8 2-1.8 3-3 1-.8 2-1.8 3-3 1-.8 2-1.8 3-3 1-.8 2-1.8 3-3 .1 0 .1-.1.2-.1l41.2 55.6c44-1.9 86.4-9.7 126.6-22.5.2-.2.4-.5.6-.7l.1-.2zM247.7 355.7l-3 3-3 3-3 3-3 3-3 3-3 3-3 3-3 3-3 3-3 3-3 3-3 3-3 3-3 3-3 3c.8-13.8 2.6-27.5 5.5-41 13.5-2.9 27.2-4.7 40.9-5.5-.4.6-.9 1.1-1.4 1.5z"/></g><path class="st3" d="M877.7 617L744.2 456.1c10.8-74-7.9-152.2-58.4-215.1-96.4-120.3-272.2-139.7-392.5-43.3-119.9 96.1-139.5 270.8-44.3 391.1C275 752 289.4 914.4 342.7 897c22-7.2 29.7-111.7 34.6-142.6 4.4-27.8 9.6-56 26.9-67 10.7 2.5 21.6 4.4 32.5 5.6 30.8 42 54.8 196.8 71.2 205 25.1 12.5 48.6-92.8 66.9-224.4 16.5-6.8 32.6-15.3 47.9-25.6l132.7 179c6 8.1 17.6 9.6 25.4 3.3l23.9-19.1c7.9-6.3 8.9-17.9 2.3-25.5L661.2 617.2c28.9-27.6 50.7-60.3 65.1-95.5l99.3 135.8c6.1 8.2 20.2 7.8 31.2-.8l12.4-9.6c11.1-8.7 14.9-22.2 8.5-30.1zm-243.6 5.9c-17.9 14.4-37.2 26-57.2 35.1.9-6.4 1.7-12.8 2.5-19.3 10-78.5 33.6-165.2 19.5-231.8-19.9-93.7-50.7-108.4-90.5-107.9-25.4.3-36.7 37.7-72.4 37.7s-65.1-53.3-125.9-33.1c-60.9 20.2-87.4 132-67.1 249.2.3 1.9.7 3.8 1 5.7-72.2-112.9-49.1-264.4 57.8-350.1 114.5-91.8 281.7-73.3 373.4 41.1 45.4 56.7 63.8 126.3 57 193.3l-6.7 5.2-63.8-82-8.1 6.3-58.2-74.8c-4.1-5.2-5.6-12.2-4.5-20.2l8.4-60.1c1.1-7.5-2.1-13.1-8.7-15.3-6.6-2.2-15.5-.6-24.3 4.3l-96.1 57.2 97.8-50.9c6-3.4 12-4.4 16.5-2.9 4.5 1.5 6.6 5.3 5.9 10.4l-8.4 60.1c-1.3 9.4.5 17.6 5.3 23.8l58.2 74.8-10.3 8 63.8 82-7.3 5.7 25.2 34.4c-16.3 43.3-44.1 83-82.8 114.1z" id="Layer_3"/></svg>