<svg xmlns="http://www.w3.org/2000/svg" viewBox="0 0 1000 1000"><style>.st0{fill:#008c8c}.st1{fill:#017572}.st2{fill:#fff}</style><ellipse class="st0" cx="499.7" cy="503.5" rx="487.2" ry="487.5" id="Layer_2"/><path class="st1" d="M503.1 984.5c1.7-1.2 3.3-2.9 5-5 1.7-1.2 3.3-2.9 5-5 1.7-1.2 3.3-2.9 5-5 1.7-1.2 3.3-2.9 5-5 1.7-1.2 3.3-2.9 5-5 1.7-1.2 3.3-2.9 5-5 1.7-1.2 3.3-2.9 5-5 1.7-1.2 3.3-2.9 5-5 1.7-1.2 3.3-2.9 5-5 1.7-1.2 3.3-2.9 5-5 1.7-1.2 3.3-2.9 5-5 1.7-1.2 3.3-2.9 5-5 1.7-1.2 3.3-2.9 5-5 1.7-1.2 3.3-2.9 5-5 1.7-1.2 3.3-2.9 5-5 1.7-1.2 3.3-2.9 5-5 1.7-1.2 3.3-2.9 5-5 1.7-1.2 3.3-2.9 5-5 1.7-1.2 3.3-2.9 5-5 1.7-1.2 3.3-2.9 5-5 1.7-1.2 3.3-2.9 5-5 1.7-1.2 3.3-2.9 5-5 1.7-1.2 3.3-2.9 5-5 1.7-1.2 3.3-2.9 5-5 1.7-1.2 3.3-2.9 5-5 24.8-17.9 47.6-136.9 65.1-273.6 10.6-83.2 35.7-175.1 20.7-245.6-21.2-99.3-53.9-114.8-96-114.3-26.9.4-38.9 39.9-76.7 39.9-31.3 0-58-38.7-102.8-39.9l50.9-77.4-81.9 82.4c-6.7 2.3-13 5.6-18.9 9.8l87.2-132.7L338.5 246l-142.1-93.5-5 5L64.2 284.8c-33 65.8-51.7 140.1-51.7 218.7 0 268.3 216.6 486 484.3 487.5.4-.5.8-.9 1.2-1.5 1.7-1.2 3.4-2.9 5.1-5z" id="Layer_4"/><path class="st2" d="M713.8 340.3C692.7 241 660 225.5 617.9 226c-26.9.4-38.9 39.9-76.7 39.9-31.3 0-58-38.7-102.8-39.9l50.9-77.4-62.2 77.9c-6.1.7-12.5 2.1-19.3 4.3-6.8 2.3-13.2 5.6-19.2 10l87.2-132.7-119.5 149.6-159.9-105.2L346 272l-4.8 7.3L209.9 193l123.2 98.4-92.3 140.4 104.5-130.7 1.5 1.2c-5.3 14.5-9.4 30.7-12.3 48l-80.2 122 76.9-96.3c-3.4 36.7-1.7 77.5 5.4 118.8 31.9 184.7 45.1 384.6 105.6 364.8 23.3-7.6 31.5-118.4 36.7-151.1 6-37.7 13.3-75.9 46.9-76 40.4-.2 71.3 218.2 91.4 228.2 29 14.4 55.8-118.7 75.8-274.8 10.8-83.2 35.8-175 20.8-245.6z" id="Layer_3"/></svg>